<svg xmlns="http://www.w3.org/2000/svg" xmlns:xlink="http://www.w3.org/1999/xlink" xmlns:lucid="lucid" width="1953.53" height="887.6"><g transform="translate(3 -128.99999999999977)" lucid:page-tab-id="0_0"><path d="M935.7 221v11c0 6.63-5.38 12-12 12H413.03c-6.63 0-12 5.37-12 12v12" stroke="#ccc" stroke-width="2" fill="none"/><path d="M936.7 221.03h-2V220h2M402.04 269h-2v-1.03h2" fill="#ccc"/><path d="M401.04 338.8v120c0 6.63-5.38 12-12 12H272.8c-6.64 0-12 5.37-12 12v12" stroke="#ccc" stroke-width="2" fill="none"/><path d="M402.04 338.83h-2v-1.03h2M261.8 495.8h-2v-1.03h2" fill="#ccc"/><path d="M401.04 338.8v156" stroke="#ccc" stroke-width="2" fill="none"/><path d="M402.04 338.83h-2v-1.03h2M402.04 495.8h-2v-1.03h2" fill="#ccc"/><path d="M401.04 338.8v120c0 6.63 5.37 12 12 12h116.24c6.63 0 12 5.37 12 12v12" stroke="#ccc" stroke-width="2" fill="none"/><path d="M402.04 338.83h-2v-1.03h2M542.28 495.8h-2v-1.03h2" fill="#ccc"/><path d="M541.28 587.2v120c0 6.63-5.37 12-12 12h-46.12c-6.63 0-12 5.37-12 12v12" stroke="#ccc" stroke-width="2" fill="none"/><path d="M542.28 587.22h-2v-1.02h2M472.16 744.2h-2v-1.02h2" fill="#ccc"/><path d="M541.28 587.2v120c0 6.63 5.37 12 12 12h46.12c6.63 0 12 5.37 12 12v12" stroke="#ccc" stroke-width="2" fill="none"/><path d="M542.28 587.22h-2v-1.02h2M612.4 744.2h-2v-1.02h2" fill="#ccc"/><path d="M611.4 814v55.2c0 6.63-5.37 12-12 12H124.94c-6.63 0-12 5.37-12 12v12" stroke="#ccc" stroke-width="2" fill="none"/><path d="M612.4 814.03h-2V813h2M113.94 906.2h-2v-1.02h2" fill="#ccc"/><path d="M611.4 814v55.2c0 6.63-5.37 12-12 12H324.33c-6.63 0-12 5.37-12 12v12" stroke="#ccc" stroke-width="2" fill="none"/><path d="M612.4 814.03h-2V813h2M313.33 906.2h-2v-1.02h2" fill="#ccc"/><path d="M611.4 814v55.2c0 6.63-5.37 12-12 12h-75.7c-6.62 0-12 5.37-12 12v12" stroke="#ccc" stroke-width="2" fill="none"/><path d="M612.4 814.03h-2V813h2M512.7 906.2h-2v-1.02h2" fill="#ccc"/><path d="M611.4 814v55.2c0 6.63 5.38 12 12 12h75.7c6.63 0 12 5.37 12 12v12" stroke="#ccc" stroke-width="2" fill="none"/><path d="M612.4 814.03h-2V813h2M712.1 906.2h-2v-1.02h2" fill="#ccc"/><path d="M611.4 814v55.2c0 6.63 5.38 12 12 12h275.08c6.63 0 12 5.37 12 12v12" stroke="#ccc" stroke-width="2" fill="none"/><path d="M612.4 814.03h-2V813h2M911.48 906.2h-2v-1.02h2" fill="#ccc"/><path d="M611.4 814v55.2c0 6.63 5.38 12 12 12h474.46c6.63 0 12 5.37 12 12v12" stroke="#ccc" stroke-width="2" fill="none"/><path d="M612.4 814.03h-2V813h2M1110.86 906.2h-2v-1.02h2" fill="#ccc"/><path d="M935.7 221v11c0 6.63 5.37 12 12 12h510.66c6.62 0 12 5.37 12 12v12" stroke="#ccc" stroke-width="2" fill="none"/><path d="M936.7 221.03h-2V220h2M1471.36 269h-2v-1.03h2" fill="#ccc"/><path d="M1470.36 446.8v12c0 6.63-5.38 12-12 12H1231.8c-6.62 0-12 5.37-12 12v12" stroke="#ccc" stroke-width="2" fill="none"/><path d="M1471.36 446.83h-2v-1.03h2M1220.8 495.8h-2v-1.03h2" fill="#ccc"/><path d="M1219.8 544v163.2c0 6.63-5.37 12-12 12h-186.36c-6.63 0-12 5.37-12 12v12" stroke="#ccc" stroke-width="2" fill="none"/><path d="M1220.8 544.02h-2V543h2M1010.44 744.2h-2v-1.02h2" fill="#ccc"/><path d="M1219.8 544v163.2c0 6.63-5.37 12-12 12h-46.1c-6.64 0-12 5.37-12 12v12" stroke="#ccc" stroke-width="2" fill="none"/><path d="M1220.8 544.02h-2V543h2M1150.7 744.2h-2v-1.02h2" fill="#ccc"/><path d="M1219.8 544v163.2c0 6.63 5.38 12 12 12h46.13c6.62 0 12 5.37 12 12v12" stroke="#ccc" stroke-width="2" fill="none"/><path d="M1220.8 544.02h-2V543h2M1290.93 744.2h-2v-1.02h2" fill="#ccc"/><path d="M1219.8 544v163.2c0 6.63 5.38 12 12 12h186.37c6.63 0 12 5.37 12 12v12" stroke="#ccc" stroke-width="2" fill="none"/><path d="M1220.8 544.02h-2V543h2M1431.17 744.2h-2v-1.02h2" fill="#ccc"/><path d="M1430.17 814v55.2c0 6.63-5.37 12-12 12h-119c-6.62 0-12 5.37-12 12v12" stroke="#ccc" stroke-width="2" fill="none"/><path d="M1431.17 814.03h-2V813h2M1288.18 906.2h-2v-1.02h2" fill="#ccc"/><path d="M1430.17 814v91.2" stroke="#ccc" stroke-width="2" fill="none"/><path d="M1431.17 814.03h-2V813h2M1431.17 906.2h-2v-1.02h2" fill="#ccc"/><path d="M1430.17 814v55.2c0 6.63 5.37 12 12 12h119c6.62 0 12 5.37 12 12v12" stroke="#ccc" stroke-width="2" fill="none"/><path d="M1431.17 814.03h-2V813h2M1574.16 906.2h-2v-1.02h2" fill="#ccc"/><path d="M1470.36 446.8v12c0 6.63 5.37 12 12 12h226.55c6.64 0 12 5.37 12 12v12" stroke="#ccc" stroke-width="2" fill="none"/><path d="M1471.36 446.83h-2v-1.03h2M1721.9 495.8h-2v-1.03h2" fill="#ccc"/><path d="M1720.9 544v163.2c0 6.63-5.36 12-12 12h-118.98c-6.63 0-12 5.37-12 12v12" stroke="#ccc" stroke-width="2" fill="none"/><path d="M1721.9 544.02h-2V543h2M1578.92 744.2h-2v-1.02h2" fill="#ccc"/><path d="M1720.9 544v199.2" stroke="#ccc" stroke-width="2" fill="none"/><path d="M1721.9 544.02h-2V543h2M1721.9 744.2h-2v-1.02h2" fill="#ccc"/><path d="M1720.9 544v163.2c0 6.63 5.38 12 12 12h119c6.63 0 12 5.37 12 12v12" stroke="#ccc" stroke-width="2" fill="none"/><path d="M1721.9 544.02h-2V543h2M1864.9 744.2h-2v-1.02h2" fill="#ccc"/><path d="M869.32 153c0-2.2 1.8-4 4-4h124.75c2.2 0 4 1.8 4 4v62c0 2.2-1.8 4-4 4H873.32c-2.2 0-4-1.8-4-4z" stroke="#666" stroke-width="2" fill="#fff"/><use xlink:href="#a" transform="matrix(1,0,0,1,879.3203125,162.39999999999975) translate(7.649999999999999 14.4)"/><path d="M334.66 273c0-2.2 1.8-4 4-4H463.4c2.22 0 4 1.8 4 4v60.8c0 2.2-1.78 4-4 4H338.67c-2.2 0-4-1.8-4-4z" fill="#fff"/><use xlink:href="#b" transform="matrix(1,0,0,1,336.6640625,270.9999999999998) translate(18.75 14.4)"/><use xlink:href="#c" transform="matrix(1,0,0,1,336.6640625,270.9999999999998) translate(62.650000000000006 14.4)"/><use xlink:href="#d" transform="matrix(1,0,0,1,336.6640625,292.5999999999998) translate(27.525 14.4)"/><use xlink:href="#e" transform="matrix(1,0,0,1,336.6640625,292.5999999999998) translate(57.474999999999994 14.4)"/><use xlink:href="#f" transform="matrix(1,0,0,1,336.6640625,292.5999999999998) translate(86.475 14.4)"/><use xlink:href="#g" transform="matrix(1,0,0,1,336.6640625,292.5999999999998) translate(34.575 36)"/><path d="M194.4 499.8c0-2.2 1.8-4 4-4h124.76c2.2 0 4 1.8 4 4v190.4c0 2.2-1.8 4-4 4H198.4c-2.2 0-4-1.8-4-4z" fill="#fff"/><use xlink:href="#h" transform="matrix(1,0,0,1,196.4140625,497.7968749999998) translate(16.27499999999999 14.4)"/><use xlink:href="#i" transform="matrix(1,0,0,1,196.4140625,497.7968749999998) translate(43.87499999999999 14.4)"/><use xlink:href="#j" transform="matrix(1,0,0,1,196.4140625,497.7968749999998) translate(17.099999999999994 36)"/><use xlink:href="#k" transform="matrix(1,0,0,1,196.4140625,497.7968749999998) translate(93.95 36)"/><use xlink:href="#l" transform="matrix(1,0,0,1,196.4140625,497.7968749999998) translate(17.549999999999997 57.6)"/><use xlink:href="#m" transform="matrix(1,0,0,1,196.4140625,562.5968749999997) translate(0 14.4)"/><use xlink:href="#n" transform="matrix(1,0,0,1,196.4140625,562.5968749999997) translate(20.95 14.4)"/><use xlink:href="#o" transform="matrix(1,0,0,1,196.4140625,562.5968749999997) translate(89.85000000000001 14.4)"/><use xlink:href="#p" transform="matrix(1,0,0,1,196.4140625,562.5968749999997) translate(0 36)"/><use xlink:href="#q" transform="matrix(1,0,0,1,196.4140625,562.5968749999997) translate(36.95 36)"/><use xlink:href="#r" transform="matrix(1,0,0,1,196.4140625,562.5968749999997) translate(0 57.6)"/><use xlink:href="#n" transform="matrix(1,0,0,1,196.4140625,562.5968749999997) translate(20.95 57.6)"/><use xlink:href="#s" transform="matrix(1,0,0,1,196.4140625,562.5968749999997) translate(89.85000000000001 57.6)"/><use xlink:href="#p" transform="matrix(1,0,0,1,196.4140625,562.5968749999997) translate(0 79.20000000000002)"/><use xlink:href="#t" transform="matrix(1,0,0,1,196.4140625,562.5968749999997) translate(36.95 79.20000000000002)"/><use xlink:href="#u" transform="matrix(1,0,0,1,196.4140625,562.5968749999997) translate(0 100.80000000000001)"/><use xlink:href="#n" transform="matrix(1,0,0,1,196.4140625,562.5968749999997) translate(19.95 100.80000000000001)"/><use xlink:href="#v" transform="matrix(1,0,0,1,196.4140625,562.5968749999997) translate(88.85000000000001 100.80000000000001)"/><use xlink:href="#p" transform="matrix(1,0,0,1,196.4140625,562.5968749999997) translate(0 122.4)"/><use xlink:href="#w" transform="matrix(1,0,0,1,196.4140625,562.5968749999997) translate(36.95 122.4)"/><path d="M334.66 499.8c0-2.2 1.8-4 4-4H463.4c2.22 0 4 1.8 4 4v125.6c0 2.2-1.78 4-4 4H338.67c-2.2 0-4-1.8-4-4z" fill="#fff"/><use xlink:href="#x" transform="matrix(1,0,0,1,336.6640625,508.5968749999998) translate(18.124999999999993 14.4)"/><use xlink:href="#y" transform="matrix(1,0,0,1,336.6640625,508.5968749999998) translate(93.975 14.4)"/><use xlink:href="#z" transform="matrix(1,0,0,1,336.6640625,508.5968749999998) translate(28.574999999999996 36)"/><use xlink:href="#A" transform="matrix(1,0,0,1,336.6640625,508.5968749999998) translate(27.574999999999996 57.6)"/><use xlink:href="#B" transform="matrix(1,0,0,1,336.6640625,573.3968749999998) translate(0.5249999999999986 14.4)"/><use xlink:href="#C" transform="matrix(1,0,0,1,336.6640625,573.3968749999998) translate(55.475 14.4)"/><use xlink:href="#D" transform="matrix(1,0,0,1,336.6640625,573.3968749999998) translate(75.475 14.4)"/><use xlink:href="#E" transform="matrix(1,0,0,1,336.6640625,573.3968749999998) translate(24 36)"/><use xlink:href="#F" transform="matrix(1,0,0,1,336.6640625,573.3968749999998) translate(60 36)"/><path d="M474.9 499.8c0-2.2 1.8-4 4-4h124.75c2.2 0 4 1.8 4 4v82.4c0 2.2-1.8 4-4 4H478.9c-2.2 0-4-1.8-4-4z" fill="#fff"/><use xlink:href="#x" transform="matrix(1,0,0,1,476.90625,497.7968749999998) translate(18.124999999999993 14.4)"/><use xlink:href="#y" transform="matrix(1,0,0,1,476.90625,497.7968749999998) translate(93.975 14.4)"/><use xlink:href="#G" transform="matrix(1,0,0,1,476.90625,497.7968749999998) translate(17.549999999999997 36)"/><use xlink:href="#A" transform="matrix(1,0,0,1,476.90625,497.7968749999998) translate(27.574999999999996 57.6)"/><path d="M404.8 748.2c0-2.2 1.78-4 4-4h124.73c2.2 0 4 1.8 4 4v82.4c0 2.2-1.8 4-4 4H408.8c-2.22 0-4-1.8-4-4z" fill="#fff"/><use xlink:href="#H" transform="matrix(1,0,0,1,406.7890625,746.2031249999998) translate(31.025 14.4)"/><use xlink:href="#I" transform="matrix(1,0,0,1,406.7890625,746.2031249999998) translate(18.574999999999996 36)"/><use xlink:href="#J" transform="matrix(1,0,0,1,406.7890625,789.4031249999998) translate(15.024999999999999 14.4)"/><use xlink:href="#K" transform="matrix(1,0,0,1,406.7890625,789.4031249999998) translate(51.025 14.4)"/><use xlink:href="#L" transform="matrix(1,0,0,1,406.7890625,789.4031249999998) translate(45.2 36)"/><path d="M545.03 748.2c0-2.2 1.8-4 4-4h124.75c2.2 0 4 1.8 4 4V809c0 2.2-1.8 4-4 4H549.03c-2.2 0-4-1.8-4-4z" fill="#fff"/><use xlink:href="#M" transform="matrix(1,0,0,1,547.03125,746.2031249999998) translate(30.049999999999997 14.4)"/><use xlink:href="#I" transform="matrix(1,0,0,1,547.03125,746.2031249999998) translate(18.574999999999996 36)"/><path d="M17 910.2c0-2.2 1.8-4 4-4h183.88c2.2 0 4 1.8 4 4V971c0 2.2-1.8 4-4 4H21c-2.2 0-4-1.8-4-4z" fill="#fff"/><use xlink:href="#N" transform="matrix(1,0,0,1,19,919.0031249999997) translate(31.049999999999997 14.4)"/><use xlink:href="#O" transform="matrix(1,0,0,1,19,919.0031249999997) translate(83.05 14.4)"/><use xlink:href="#P" transform="matrix(1,0,0,1,19,919.0031249999997) translate(116.95 14.4)"/><use xlink:href="#Q" transform="matrix(1,0,0,1,19,940.6031249999997) translate(6.074999999999989 14.4)"/><use xlink:href="#R" transform="matrix(1,0,0,1,19,940.6031249999997) translate(74.975 14.4)"/><use xlink:href="#S" transform="matrix(1,0,0,1,19,940.6031249999997) translate(94.975 14.4)"/><use xlink:href="#T" transform="matrix(1,0,0,1,19,940.6031249999997) translate(130.975 14.4)"/><path d="M216.38 910.2c0-2.2 1.8-4 4-4h183.9c2.2 0 4 1.8 4 4v82.4c0 2.2-1.8 4-4 4h-183.9c-2.2 0-4-1.8-4-4z" fill="#fff"/><use xlink:href="#U" transform="matrix(1,0,0,1,218.3828125,929.8031249999998) translate(1.2249999999999943 14.4)"/><use xlink:href="#V" transform="matrix(1,0,0,1,218.3828125,929.8031249999998) translate(96.97500000000001 14.4)"/><use xlink:href="#W" transform="matrix(1,0,0,1,218.3828125,929.8031249999998) translate(114.92500000000001 14.4)"/><g><use xlink:href="#Q" transform="matrix(1,0,0,1,218.3828125,951.4031249999998) translate(0.07499999999998863 14.4)"/><use xlink:href="#X" transform="matrix(1,0,0,1,218.3828125,951.4031249999998) translate(68.975 14.4)"/><use xlink:href="#S" transform="matrix(1,0,0,1,218.3828125,951.4031249999998) translate(90.975 14.4)"/><use xlink:href="#Y" transform="matrix(1,0,0,1,218.3828125,951.4031249999998) translate(126.975 14.4)"/></g><path d="M415.77 910.2c0-2.2 1.8-4 4-4h183.88c2.2 0 4 1.8 4 4v39.2c0 2.2-1.8 4-4 4H419.77c-2.2 0-4-1.8-4-4z" fill="#fff"/><g><use xlink:href="#Z" transform="matrix(1,0,0,1,417.765625,908.2031249999998) translate(23.625 14.4)"/><use xlink:href="#aa" transform="matrix(1,0,0,1,417.765625,908.2031249999998) translate(79.575 14.4)"/><use xlink:href="#ab" transform="matrix(1,0,0,1,417.765625,908.2031249999998) translate(152.375 14.4)"/></g><g><use xlink:href="#J" transform="matrix(1,0,0,1,417.765625,929.8031249999998) translate(41.2 14.4)"/><use xlink:href="#ac" transform="matrix(1,0,0,1,417.765625,929.8031249999998) translate(77.2 14.4)"/></g><path d="M615.16 910.2c0-2.2 1.8-4 4-4h183.88c2.2 0 4 1.8 4 4V971c0 2.2-1.8 4-4 4H619.16c-2.2 0-4-1.8-4-4z" fill="#fff"/><g><use xlink:href="#ad" transform="matrix(1,0,0,1,617.15625,908.2031249999998) translate(46.574999999999996 14.4)"/></g><g><use xlink:href="#Q" transform="matrix(1,0,0,1,617.15625,929.8031249999998) translate(33.75 14.4)"/><use xlink:href="#ae" transform="matrix(1,0,0,1,617.15625,929.8031249999998) translate(102.65 14.4)"/><use xlink:href="#af" transform="matrix(1,0,0,1,617.15625,929.8031249999998) translate(123.25 14.4)"/><use xlink:href="#ag" transform="matrix(1,0,0,1,617.15625,929.8031249999998) translate(59.2 36)"/></g><path d="M814.54 910.2c0-2.2 1.8-4 4-4h183.88c2.2 0 4 1.8 4 4V971c0 2.2-1.8 4-4 4H818.54c-2.2 0-4-1.8-4-4z" fill="#fff"/><g><use xlink:href="#ah" transform="matrix(1,0,0,1,816.5390625,908.2031249999998) translate(73.55 14.4)"/></g><g><use xlink:href="#Q" transform="matrix(1,0,0,1,816.5390625,929.8031249999998) translate(30.549999999999997 14.4)"/><use xlink:href="#ai" transform="matrix(1,0,0,1,816.5390625,929.8031249999998) translate(99.45 14.4)"/><use xlink:href="#af" transform="matrix(1,0,0,1,816.5390625,929.8031249999998) translate(126.45 14.4)"/><use xlink:href="#aj" transform="matrix(1,0,0,1,816.5390625,929.8031249999998) translate(58.525 36)"/></g><path d="M1013.92 910.2c0-2.2 1.8-4 4-4h183.9c2.2 0 4 1.8 4 4v82.4c0 2.2-1.8 4-4 4h-183.9c-2.2 0-4-1.8-4-4z" fill="#fff"/><g><use xlink:href="#x" transform="matrix(1,0,0,1,1015.921875,908.2031249999998) translate(47.62499999999999 14.4)"/><use xlink:href="#y" transform="matrix(1,0,0,1,1015.921875,908.2031249999998) translate(123.475 14.4)"/><use xlink:href="#ak" transform="matrix(1,0,0,1,1015.921875,908.2031249999998) translate(16.14999999999999 36)"/><use xlink:href="#al" transform="matrix(1,0,0,1,1015.921875,908.2031249999998) translate(112.9 36)"/></g><g><use xlink:href="#Q" transform="matrix(1,0,0,1,1015.921875,951.4031249999998) translate(28.049999999999997 14.4)"/><use xlink:href="#am" transform="matrix(1,0,0,1,1015.921875,951.4031249999998) translate(96.95 14.4)"/><use xlink:href="#af" transform="matrix(1,0,0,1,1015.921875,951.4031249999998) translate(128.95 14.4)"/><use xlink:href="#an" transform="matrix(1,0,0,1,1015.921875,951.4031249999998) translate(58.525 36)"/></g><path d="M1403.98 273c0-2.2 1.8-4 4-4h124.75c2.2 0 4 1.8 4 4v168.8c0 2.2-1.8 4-4 4h-124.75c-2.2 0-4-1.8-4-4z" fill="#fff"/><g><use xlink:href="#ao" transform="matrix(1,0,0,1,1405.984375,270.9999999999998) translate(24.64999999999999 14.4)"/><use xlink:href="#c" transform="matrix(1,0,0,1,1405.984375,270.9999999999998) translate(40.7 36)"/></g><g><use xlink:href="#d" transform="matrix(1,0,0,1,1405.984375,314.19999999999976) translate(2.0749999999999957 14.4)"/><use xlink:href="#ap" transform="matrix(1,0,0,1,1405.984375,314.19999999999976) translate(32.02499999999999 14.4)"/><use xlink:href="#f" transform="matrix(1,0,0,1,1405.984375,314.19999999999976) translate(111.92500000000001 14.4)"/><use xlink:href="#aq" transform="matrix(1,0,0,1,1405.984375,314.19999999999976) translate(36.05 36)"/><use xlink:href="#ar" transform="matrix(1,0,0,1,1405.984375,314.19999999999976) translate(67.94999999999999 36)"/><use xlink:href="#as" transform="matrix(1,0,0,1,1405.984375,314.19999999999976) translate(16.025 57.6)"/><use xlink:href="#at" transform="matrix(1,0,0,1,1405.984375,314.19999999999976) translate(20.199999999999996 79.20000000000002)"/><use xlink:href="#au" transform="matrix(1,0,0,1,1405.984375,314.19999999999976) translate(9.099999999999994 100.80000000000001)"/><use xlink:href="#C" transform="matrix(1,0,0,1,1405.984375,314.19999999999976) translate(56 100.80000000000001)"/><use xlink:href="#av" transform="matrix(1,0,0,1,1405.984375,314.19999999999976) translate(76 100.80000000000001)"/><use xlink:href="#aw" transform="matrix(1,0,0,1,1405.984375,314.19999999999976) translate(49.525 122.4)"/></g><path d="M1153.43 499.8c0-2.2 1.8-4 4-4h124.75c2.2 0 4 1.8 4 4V539c0 2.2-1.8 4-4 4h-124.75c-2.2 0-4-1.8-4-4z" fill="#fff"/><g><use xlink:href="#ax" transform="matrix(1,0,0,1,1155.4296875,497.7968749999998) translate(0 14.4)"/></g><path d="M943.06 748.2c0-2.2 1.8-4 4-4h124.75c2.22 0 4 1.8 4 4v104c0 2.2-1.78 4-4 4H947.07c-2.2 0-4-1.8-4-4z" fill="#fff"/><g><use xlink:href="#ay" transform="matrix(1,0,0,1,945.0625,746.2031249999998) translate(38.074999999999996 14.4)"/><use xlink:href="#az" transform="matrix(1,0,0,1,945.0625,746.2031249999998) translate(14.574999999999996 36)"/><use xlink:href="#aA" transform="matrix(1,0,0,1,945.0625,746.2031249999998) translate(6.074999999999996 57.6)"/><use xlink:href="#aB" transform="matrix(1,0,0,1,945.0625,746.2031249999998) translate(44.975 57.6)"/><use xlink:href="#aC" transform="matrix(1,0,0,1,945.0625,746.2031249999998) translate(89.975 57.6)"/><use xlink:href="#aD" transform="matrix(1,0,0,1,945.0625,746.2031249999998) translate(33.55 79.20000000000002)"/></g><path d="M1083.3 748.2c0-2.2 1.8-4 4-4h124.76c2.2 0 4 1.8 4 4v104c0 2.2-1.8 4-4 4H1087.3c-2.2 0-4-1.8-4-4z" fill="#fff"/><g><use xlink:href="#aE" transform="matrix(1,0,0,1,1085.3125,746.2031249999998) translate(39.099999999999994 14.4)"/><use xlink:href="#az" transform="matrix(1,0,0,1,1085.3125,746.2031249999998) translate(14.574999999999996 36)"/><use xlink:href="#aA" transform="matrix(1,0,0,1,1085.3125,746.2031249999998) translate(11.074999999999996 57.6)"/><use xlink:href="#aF" transform="matrix(1,0,0,1,1085.3125,746.2031249999998) translate(49.975 57.6)"/><use xlink:href="#aG" transform="matrix(1,0,0,1,1085.3125,746.2031249999998) translate(94.975 57.6)"/><use xlink:href="#aH" transform="matrix(1,0,0,1,1085.3125,746.2031249999998) translate(51.525 79.20000000000002)"/></g><path d="M1223.55 748.2c0-2.2 1.8-4 4-4h124.75c2.2 0 4 1.8 4 4v104c0 2.2-1.8 4-4 4h-124.75c-2.2 0-4-1.8-4-4z" fill="#fff"/><g><use xlink:href="#aI" transform="matrix(1,0,0,1,1225.5546875,746.2031249999998) translate(9.274999999999991 14.4)"/><use xlink:href="#aJ" transform="matrix(1,0,0,1,1225.5546875,746.2031249999998) translate(38.87499999999999 14.4)"/><use xlink:href="#aK" transform="matrix(1,0,0,1,1225.5546875,746.2031249999998) translate(7.17499999999999 36)"/><use xlink:href="#aL" transform="matrix(1,0,0,1,1225.5546875,746.2031249999998) translate(41.074999999999996 36)"/><use xlink:href="#aM" transform="matrix(1,0,0,1,1225.5546875,746.2031249999998) translate(59.025 36)"/><use xlink:href="#aN" transform="matrix(1,0,0,1,1225.5546875,746.2031249999998) translate(87.92500000000001 36)"/><use xlink:href="#aO" transform="matrix(1,0,0,1,1225.5546875,746.2031249999998) translate(23.025 57.6)"/><use xlink:href="#aP" transform="matrix(1,0,0,1,1225.5546875,746.2031249999998) translate(68.025 57.6)"/><use xlink:href="#aQ" transform="matrix(1,0,0,1,1225.5546875,746.2031249999998) translate(78.975 57.6)"/><use xlink:href="#aR" transform="matrix(1,0,0,1,1225.5546875,746.2031249999998) translate(28.549999999999997 79.20000000000002)"/></g><path d="M1363.8 748.2c0-2.2 1.8-4 4-4h124.74c2.2 0 4 1.8 4 4V809c0 2.2-1.8 4-4 4H1367.8c-2.2 0-4-1.8-4-4z" fill="#fff"/><g><use xlink:href="#aS" transform="matrix(1,0,0,1,1365.796875,757.0031249999997) translate(1.5749999999999957 14.4)"/><use xlink:href="#aT" transform="matrix(1,0,0,1,1365.796875,757.0031249999997) translate(82.475 14.4)"/></g><path d="M1220.8 910.2c0-2.2 1.8-4 4-4h124.75c2.2 0 4 1.8 4 4v39.2c0 2.2-1.8 4-4 4H1224.8c-2.2 0-4-1.8-4-4z" fill="#fff"/><g><use xlink:href="#aU" transform="matrix(1,0,0,1,1222.8046875,908.2031249999998) translate(0 14.4)"/><use xlink:href="#aV" transform="matrix(1,0,0,1,1222.8046875,908.2031249999998) translate(55.80000000000001 14.4)"/></g><path d="M1361.05 910.2c0-2.2 1.8-4 4-4h130.24c2.2 0 4 1.8 4 4V971c0 2.2-1.8 4-4 4h-130.25c-2.2 0-4-1.8-4-4z" fill="#fff"/><g><use xlink:href="#aW" transform="matrix(1,0,0,1,1363.0546875,908.2031249999998) translate(7.125 14.4)"/><use xlink:href="#aV" transform="matrix(1,0,0,1,1363.0546875,908.2031249999998) translate(50.025 36)"/></g><path d="M1506.8 910.2c0-2.2 1.78-4 4-4h124.73c2.2 0 4 1.8 4 4v82.4c0 2.2-1.8 4-4 4H1510.8c-2.22 0-4-1.8-4-4z" fill="#fff"/><g><use xlink:href="#aX" transform="matrix(1,0,0,1,1508.7890625,919.0031249999997) translate(0.09999999999999432 14.4)"/><use xlink:href="#aY" transform="matrix(1,0,0,1,1508.7890625,919.0031249999997) translate(52.99999999999999 14.4)"/><use xlink:href="#aZ" transform="matrix(1,0,0,1,1508.7890625,919.0031249999997) translate(42.025 36)"/></g><path d="M1654.54 499.8c0-2.2 1.8-4 4-4h124.74c2.2 0 4 1.8 4 4V539c0 2.2-1.8 4-4 4h-124.74c-2.2 0-4-1.8-4-4z" fill="#fff"/><g><use xlink:href="#ba" transform="matrix(1,0,0,1,1656.5390625,497.7968749999998) translate(27.599999999999994 14.4)"/></g><path d="M1511.55 748.2c0-2.2 1.8-4 4-4h124.74c2.2 0 4 1.8 4 4v39.2c0 2.2-1.8 4-4 4h-124.75c-2.2 0-4-1.8-4-4z" fill="#fff"/><g><use xlink:href="#aU" transform="matrix(1,0,0,1,1513.546875,746.2031249999998) translate(14.124999999999993 14.4)"/><use xlink:href="#aT" transform="matrix(1,0,0,1,1513.546875,746.2031249999998) translate(69.92500000000001 14.4)"/></g><path d="M1651.8 748.2c0-2.2 1.78-4 4-4h130.23c2.2 0 4 1.8 4 4V809c0 2.2-1.8 4-4 4H1655.8c-2.22 0-4-1.8-4-4z" fill="#fff"/><g><use xlink:href="#aW" transform="matrix(1,0,0,1,1653.7890625,746.2031249999998) translate(7.125 14.4)"/><use xlink:href="#aT" transform="matrix(1,0,0,1,1653.7890625,746.2031249999998) translate(45.025 36)"/></g><path d="M1797.53 748.2c0-2.2 1.8-4 4-4h124.75c2.2 0 4 1.8 4 4v82.4c0 2.2-1.8 4-4 4h-124.75c-2.2 0-4-1.8-4-4z" fill="#fff"/><g><use xlink:href="#aX" transform="matrix(1,0,0,1,1799.53125,757.0031249999997) translate(0.09999999999999432 14.4)"/><use xlink:href="#aY" transform="matrix(1,0,0,1,1799.53125,757.0031249999997) translate(52.99999999999999 14.4)"/><use xlink:href="#aZ" transform="matrix(1,0,0,1,1799.53125,757.0031249999997) translate(42.025 36)"/></g><defs><path d="M136-208V0H84v-208H4v-40h212v40h-80" id="bb"/><path d="M240-174c0 40-23 61-54 70L253 0h-59l-57-94H76V0H24v-248c93 4 217-23 216 74zM76-134c48-2 112 12 112-38 0-48-66-32-112-35v73" id="bc"/><path d="M199 0l-22-63H83L61 0H9l90-248h61L250 0h-51zm-33-102l-36-108c-10 38-24 72-36 108h72" id="bd"/><path d="M175 0L67-191c6 58 2 128 3 191H24v-248h59L193-55c-6-58-2-129-3-193h46V0h-61" id="be"/><path d="M169-182c-1-43-94-46-97-3 18 66 151 10 154 114 3 95-165 93-204 36-6-8-10-19-12-30l50-8c3 46 112 56 116 5-17-69-150-10-154-114-4-87 153-88 188-35 5 8 8 18 10 28" id="bf"/><path d="M76-208v77h127v40H76V0H24v-248h183v40H76" id="bg"/><path d="M24 0v-248h195v40H76v63h132v40H76v65h150V0H24" id="bh"/><g id="a"><use transform="matrix(0.05,0,0,0.05,0,0)" xlink:href="#bb"/><use transform="matrix(0.05,0,0,0.05,10.950000000000001,0)" xlink:href="#bc"/><use transform="matrix(0.05,0,0,0.05,23.900000000000002,0)" xlink:href="#bd"/><use transform="matrix(0.05,0,0,0.05,36.85,0)" xlink:href="#be"/><use transform="matrix(0.05,0,0,0.05,49.800000000000004,0)" xlink:href="#bf"/><use transform="matrix(0.05,0,0,0.05,61.800000000000004,0)" xlink:href="#bg"/><use transform="matrix(0.05,0,0,0.05,72.75,0)" xlink:href="#bh"/><use transform="matrix(0.05,0,0,0.05,84.75,0)" xlink:href="#bc"/></g><path d="M24 0v-248h52V0H24" id="bi"/><path d="M135-194c87-1 58 113 63 194h-50c-7-57 23-157-34-157-59 0-34 97-39 157H25l-1-190h47c2 12-1 28 3 38 12-26 28-41 61-42" id="bj"/><path d="M115-3C79 11 28 4 28-45v-112H4v-33h27l15-45h31v45h36v33H77v99c-1 23 16 31 38 25v30" id="bk"/><path d="M185-48c-13 30-37 53-82 52C43 2 14-33 14-96s30-98 90-98c62 0 83 45 84 108H66c0 31 8 55 39 56 18 0 30-7 34-22zm-45-69c5-46-57-63-70-21-2 6-4 13-4 21h74" id="bl"/><path d="M135-150c-39-12-60 13-60 57V0H25l-1-190h47c2 13-1 29 3 40 6-28 27-53 61-41v41" id="bm"/><g id="b"><use transform="matrix(0.05,0,0,0.05,0,0)" xlink:href="#bi"/><use transform="matrix(0.05,0,0,0.05,5,0)" xlink:href="#bj"/><use transform="matrix(0.05,0,0,0.05,15.950000000000001,0)" xlink:href="#bk"/><use transform="matrix(0.05,0,0,0.05,21.900000000000002,0)" xlink:href="#bl"/><use transform="matrix(0.05,0,0,0.05,31.900000000000002,0)" xlink:href="#bm"/></g><path d="M147 0H94L2-248h55l64 206c17-72 42-137 63-206h54" id="bn"/><path d="M25-224v-37h50v37H25zM25 0v-190h50V0H25" id="bo"/><path d="M128 0H69L1-190h53L99-40l48-150h52" id="bp"/><path d="M110-194c64 0 96 36 96 99 0 64-35 99-97 99-61 0-95-36-95-99 0-62 34-99 96-99zm-1 164c35 0 45-28 45-65 0-40-10-65-43-65-34 0-45 26-45 65 0 36 10 65 43 65" id="bq"/><path d="M137-138c1-29-70-34-71-4 15 46 118 7 119 86 1 83-164 76-172 9l43-7c4 19 20 25 44 25 33 8 57-30 24-41C81-84 22-81 20-136c-2-80 154-74 161-7" id="br"/><g id="c"><use transform="matrix(0.05,0,0,0.05,0,0)" xlink:href="#bn"/><use transform="matrix(0.05,0,0,0.05,11.65,0)" xlink:href="#bo"/><use transform="matrix(0.05,0,0,0.05,16.65,0)" xlink:href="#bp"/><use transform="matrix(0.05,0,0,0.05,26.649999999999995,0)" xlink:href="#bq"/><use transform="matrix(0.05,0,0,0.05,37.6,0)" xlink:href="#br"/></g><path d="M87 75C49 33 22-17 22-94c0-76 28-126 65-167h31c-38 41-64 92-64 168S80 34 118 75H87" id="bs"/><path d="M115-194c53 0 69 39 70 98 0 66-23 100-70 100C84 3 66-7 56-30L54 0H23l1-261h32v101c10-23 28-34 59-34zm-8 174c40 0 45-34 45-75 0-40-5-75-45-74-42 0-51 32-51 76 0 43 10 73 51 73" id="bt"/><path d="M179-190L93 31C79 59 56 82 12 73V49c39 6 53-20 64-50L1-190h34L92-34l54-156h33" id="bu"/><g id="d"><use transform="matrix(0.05,0,0,0.05,0,0)" xlink:href="#bs"/><use transform="matrix(0.05,0,0,0.05,5.95,0)" xlink:href="#bt"/><use transform="matrix(0.05,0,0,0.05,15.949999999999998,0)" xlink:href="#bu"/></g><path d="M141-36C126-15 110 5 73 4 37 3 15-17 15-53c-1-64 63-63 125-63 3-35-9-54-41-54-24 1-41 7-42 31l-33-3c5-37 33-52 76-52 45 0 72 20 72 64v82c-1 20 7 32 28 27v20c-31 9-61-2-59-35zM48-53c0 20 12 33 32 33 41-3 63-29 60-74-43 2-92-5-92 41" id="bv"/><path d="M96-169c-40 0-48 33-48 73s9 75 48 75c24 0 41-14 43-38l32 2c-6 37-31 61-74 61-59 0-76-41-82-99-10-93 101-131 147-64 4 7 5 14 7 22l-32 3c-4-21-16-35-41-35" id="bw"/><path d="M59-47c-2 24 18 29 38 22v24C64 9 27 4 27-40v-127H5v-23h24l9-43h21v43h35v23H59v120" id="bx"/><g id="e"><use transform="matrix(0.05,0,0,0.05,0,0)" xlink:href="#bv"/><use transform="matrix(0.05,0,0,0.05,10,0)" xlink:href="#bw"/><use transform="matrix(0.05,0,0,0.05,19,0)" xlink:href="#bx"/></g><path d="M100-194c62-1 85 37 85 99 1 63-27 99-86 99S16-35 15-95c0-66 28-99 85-99zM99-20c44 1 53-31 53-75 0-43-8-75-51-75s-53 32-53 75 10 74 51 75" id="by"/><path d="M101-234c-31-9-42 10-38 44h38v23H63V0H32v-167H5v-23h27c-7-52 17-82 69-68v24" id="bz"/><g id="f"><use transform="matrix(0.05,0,0,0.05,0,0)" xlink:href="#by"/><use transform="matrix(0.05,0,0,0.05,10,0)" xlink:href="#bz"/></g><path d="M115-194c55 1 70 41 70 98S169 2 115 4C84 4 66-9 55-30l1 105H24l-1-265h31l2 30c10-21 28-34 59-34zm-8 174c40 0 45-34 45-75s-6-73-45-74c-42 0-51 32-51 76 0 43 10 73 51 73" id="bA"/><path d="M114-163C36-179 61-72 57 0H25l-1-190h30c1 12-1 29 2 39 6-27 23-49 58-41v29" id="bB"/><path d="M24-231v-30h32v30H24zM24 0v-190h32V0H24" id="bC"/><path d="M100-194c63 0 86 42 84 106H49c0 40 14 67 53 68 26 1 43-12 49-29l28 8c-11 28-37 45-77 45C44 4 14-33 15-96c1-61 26-98 85-98zm52 81c6-60-76-77-97-28-3 7-6 17-6 28h103" id="bD"/><path d="M135-143c-3-34-86-38-87 0 15 53 115 12 119 90S17 21 10-45l28-5c4 36 97 45 98 0-10-56-113-15-118-90-4-57 82-63 122-42 12 7 21 19 24 35" id="bE"/><path d="M33-261c38 41 65 92 65 168S71 34 33 75H2C39 34 66-17 66-93S39-220 2-261h31" id="bF"/><g id="g"><use transform="matrix(0.05,0,0,0.05,0,0)" xlink:href="#bA"/><use transform="matrix(0.05,0,0,0.05,10,0)" xlink:href="#bv"/><use transform="matrix(0.05,0,0,0.05,20,0)" xlink:href="#bB"/><use transform="matrix(0.05,0,0,0.05,25.950000000000003,0)" xlink:href="#bx"/><use transform="matrix(0.05,0,0,0.05,30.950000000000003,0)" xlink:href="#bC"/><use transform="matrix(0.05,0,0,0.05,34.9,0)" xlink:href="#bD"/><use transform="matrix(0.05,0,0,0.05,44.9,0)" xlink:href="#bE"/><use transform="matrix(0.05,0,0,0.05,53.900000000000006,0)" xlink:href="#bF"/></g><path d="M24-248c93 1 206-16 204 79-1 75-69 88-152 82V0H24v-248zm52 121c47 0 100 7 100-41 0-47-54-39-100-39v80" id="bG"/><g id="h"><use transform="matrix(0.05,0,0,0.05,0,0)" xlink:href="#bb"/><use transform="matrix(0.05,0,0,0.05,10.950000000000001,0)" xlink:href="#bG"/></g><path d="M231 0h-52l-39-155L100 0H48L-1-190h46L77-45c9-52 24-97 36-145h53l37 145 32-145h46" id="bH"/><path d="M114-157C55-157 80-60 75 0H25v-261h50l-1 109c12-26 28-41 61-42 86-1 58 113 63 194h-50c-7-57 23-157-34-157" id="bI"/><g id="i"><use transform="matrix(0.05,0,0,0.05,0,0)" xlink:href="#bH"/><use transform="matrix(0.05,0,0,0.05,14,0)" xlink:href="#bI"/><use transform="matrix(0.05,0,0,0.05,24.950000000000003,0)" xlink:href="#bl"/><use transform="matrix(0.05,0,0,0.05,34.95,0)" xlink:href="#bk"/><use transform="matrix(0.05,0,0,0.05,40.900000000000006,0)" xlink:href="#bI"/><use transform="matrix(0.05,0,0,0.05,51.85,0)" xlink:href="#bl"/><use transform="matrix(0.05,0,0,0.05,61.85,0)" xlink:href="#bm"/></g><path d="M230 0l2-204L168 0h-37L68-204 70 0H24v-248h70l56 185 57-185h69V0h-46" id="bJ"/><path d="M133-34C117-15 103 5 69 4 32 3 11-16 11-54c-1-60 55-63 116-61 1-26-3-47-28-47-18 1-26 9-28 27l-52-2c7-38 36-58 82-57s74 22 75 68l1 82c-1 14 12 18 25 15v27c-30 8-71 5-69-32zm-48 3c29 0 43-24 42-57-32 0-66-3-65 30 0 17 8 27 23 27" id="bK"/><path d="M135-194c52 0 70 43 70 98 0 56-19 99-73 100-30 1-46-15-58-35L72 0H24l1-261h50v104c11-23 29-37 60-37zM114-30c31 0 40-27 40-66 0-37-7-63-39-63s-41 28-41 65c0 36 8 64 40 64" id="bL"/><path d="M25 0v-261h50V0H25" id="bM"/><g id="j"><use transform="matrix(0.05,0,0,0.05,0,0)" xlink:href="#bJ"/><use transform="matrix(0.05,0,0,0.05,14.950000000000001,0)" xlink:href="#bq"/><use transform="matrix(0.05,0,0,0.05,25.900000000000002,0)" xlink:href="#bp"/><use transform="matrix(0.05,0,0,0.05,35.900000000000006,0)" xlink:href="#bK"/><use transform="matrix(0.05,0,0,0.05,45.900000000000006,0)" xlink:href="#bL"/><use transform="matrix(0.05,0,0,0.05,56.85,0)" xlink:href="#bM"/><use transform="matrix(0.05,0,0,0.05,61.85,0)" xlink:href="#bl"/></g><g id="k"><use transform="matrix(0.05,0,0,0.05,0,0)" xlink:href="#bq"/><use transform="matrix(0.05,0,0,0.05,10.950000000000001,0)" xlink:href="#bm"/></g><path d="M220-157c-53 9-28 100-34 157h-49v-107c1-27-5-49-29-50C55-147 81-57 75 0H25l-1-190h47c2 12-1 28 3 38 10-53 101-56 108 0 13-22 24-43 59-42 82 1 51 116 57 194h-49v-107c-1-25-5-48-29-50" id="bN"/><g id="l"><use transform="matrix(0.05,0,0,0.05,0,0)" xlink:href="#bi"/><use transform="matrix(0.05,0,0,0.05,5,0)" xlink:href="#bN"/><use transform="matrix(0.05,0,0,0.05,21,0)" xlink:href="#bN"/><use transform="matrix(0.05,0,0,0.05,37,0)" xlink:href="#bq"/><use transform="matrix(0.05,0,0,0.05,47.95,0)" xlink:href="#bp"/><use transform="matrix(0.05,0,0,0.05,57.95,0)" xlink:href="#bK"/><use transform="matrix(0.05,0,0,0.05,67.95,0)" xlink:href="#bL"/><use transform="matrix(0.05,0,0,0.05,78.9,0)" xlink:href="#bM"/><use transform="matrix(0.05,0,0,0.05,83.9,0)" xlink:href="#bl"/></g><g id="m"><use transform="matrix(0.05,0,0,0.05,0,0)" xlink:href="#bv"/><use transform="matrix(0.05,0,0,0.05,10,0)" xlink:href="#bF"/></g><path d="M212-179c-10-28-35-45-73-45-59 0-87 40-87 99 0 60 29 101 89 101 43 0 62-24 78-52l27 14C228-24 195 4 139 4 59 4 22-46 18-125c-6-104 99-153 187-111 19 9 31 26 39 46" id="bO"/><path d="M106-169C34-169 62-67 57 0H25v-261h32l-1 103c12-21 28-36 61-36 89 0 53 116 60 194h-32v-121c2-32-8-49-39-48" id="bP"/><g id="n"><use transform="matrix(0.05,0,0,0.05,0,0)" xlink:href="#bO"/><use transform="matrix(0.05,0,0,0.05,12.950000000000001,0)" xlink:href="#bP"/><use transform="matrix(0.05,0,0,0.05,22.950000000000003,0)" xlink:href="#bv"/><use transform="matrix(0.05,0,0,0.05,32.95,0)" xlink:href="#bA"/><use transform="matrix(0.05,0,0,0.05,42.95,0)" xlink:href="#bx"/><use transform="matrix(0.05,0,0,0.05,47.95,0)" xlink:href="#bD"/><use transform="matrix(0.05,0,0,0.05,57.95,0)" xlink:href="#bB"/></g><path d="M33 0v-248h34V0H33" id="bQ"/><g id="o"><use transform="matrix(0.05,0,0,0.05,0,0)" xlink:href="#bQ"/><use transform="matrix(0.05,0,0,0.05,5,0)" xlink:href="#bQ"/></g><path d="M185-189c-5-48-123-54-124 2 14 75 158 14 163 119 3 78-121 87-175 55-17-10-28-26-33-46l33-7c5 56 141 63 141-1 0-78-155-14-162-118-5-82 145-84 179-34 5 7 8 16 11 25" id="bR"/><path d="M33 0v-38h34V0H33" id="bS"/><g id="p"><use transform="matrix(0.05,0,0,0.05,0,0)" xlink:href="#bs"/><use transform="matrix(0.05,0,0,0.05,5.95,0)" xlink:href="#bR"/><use transform="matrix(0.05,0,0,0.05,17.95,0)" xlink:href="#bE"/><use transform="matrix(0.05,0,0,0.05,26.950000000000003,0)" xlink:href="#bS"/></g><path d="M54-142c48-35 137-8 131 61C196 18 31 33 14-55l32-4c7 23 22 37 52 37 35-1 51-22 54-58 4-55-73-65-99-34H22l8-134h141v27H59" id="bT"/><path d="M16-82v-28h88v28H16" id="bU"/><path d="M126-127c33 6 58 20 58 59 0 88-139 92-164 29-3-8-5-16-6-25l32-3c6 27 21 44 54 44 32 0 52-15 52-46 0-38-36-46-79-43v-28c39 1 72-4 72-42 0-27-17-43-46-43-28 0-47 15-49 41l-32-3c6-42 35-63 81-64 48-1 79 21 79 65 0 36-21 52-52 59" id="bV"/><path d="M64 0c3-98 48-159 88-221H18v-27h164v26C143-157 98-101 97 0H64" id="bW"/><g id="q"><use transform="matrix(0.05,0,0,0.05,0,0)" xlink:href="#bT"/><use transform="matrix(0.05,0,0,0.05,10,0)" xlink:href="#bU"/><use transform="matrix(0.05,0,0,0.05,15.949999999999998,0)" xlink:href="#bV"/><use transform="matrix(0.05,0,0,0.05,25.950000000000003,0)" xlink:href="#bW"/><use transform="matrix(0.05,0,0,0.05,35.95,0)" xlink:href="#bF"/></g><g id="r"><use transform="matrix(0.05,0,0,0.05,0,0)" xlink:href="#bt"/><use transform="matrix(0.05,0,0,0.05,10,0)" xlink:href="#bF"/></g><path d="M137 0h-34L2-248h35l83 218 83-218h36" id="bX"/><g id="s"><use transform="matrix(0.05,0,0,0.05,0,0)" xlink:href="#bX"/><use transform="matrix(0.05,0,0,0.05,12,0)" xlink:href="#bQ"/><use transform="matrix(0.05,0,0,0.05,17,0)" xlink:href="#bQ"/></g><path d="M27 0v-27h64v-190l-56 39v-29l58-41h29v221h61V0H27" id="bY"/><path d="M101-251c82-7 93 87 43 132L82-64C71-53 59-42 53-27h129V0H18c2-99 128-94 128-182 0-28-16-43-45-43s-46 15-49 41l-32-3c6-41 34-60 81-64" id="bZ"/><path d="M99-251c64 0 84 50 84 122C183-37 130 33 47-8c-14-7-20-23-25-40l30-5c6 39 69 39 84 7 9-19 16-44 16-74-10 22-31 35-62 35-49 0-73-33-73-83 0-54 28-83 82-83zm-1 141c31-1 51-18 51-49 0-36-14-67-51-67-34 0-49 23-49 58 0 34 15 58 49 58" id="ca"/><g id="t"><use transform="matrix(0.05,0,0,0.05,0,0)" xlink:href="#bY"/><use transform="matrix(0.05,0,0,0.05,10,0)" xlink:href="#bZ"/><use transform="matrix(0.05,0,0,0.05,20,0)" xlink:href="#bZ"/><use transform="matrix(0.05,0,0,0.05,30,0)" xlink:href="#bU"/><use transform="matrix(0.05,0,0,0.05,35.95,0)" xlink:href="#bY"/><use transform="matrix(0.05,0,0,0.05,45.95,0)" xlink:href="#bZ"/><use transform="matrix(0.05,0,0,0.05,55.95,0)" xlink:href="#ca"/><use transform="matrix(0.05,0,0,0.05,65.95,0)" xlink:href="#bF"/></g><g id="u"><use transform="matrix(0.05,0,0,0.05,0,0)" xlink:href="#bw"/><use transform="matrix(0.05,0,0,0.05,9,0)" xlink:href="#bF"/></g><g id="v"><use transform="matrix(0.05,0,0,0.05,0,0)" xlink:href="#bX"/><use transform="matrix(0.05,0,0,0.05,12,0)" xlink:href="#bQ"/><use transform="matrix(0.05,0,0,0.05,17,0)" xlink:href="#bQ"/><use transform="matrix(0.05,0,0,0.05,22,0)" xlink:href="#bQ"/></g><path d="M101-251c68 0 85 55 85 127S166 4 100 4C33 4 14-52 14-124c0-73 17-127 87-127zm-1 229c47 0 54-49 54-102s-4-102-53-102c-51 0-55 48-55 102 0 53 5 102 54 102" id="cb"/><g id="w"><use transform="matrix(0.05,0,0,0.05,0,0)" xlink:href="#bY"/><use transform="matrix(0.05,0,0,0.05,10,0)" xlink:href="#bV"/><use transform="matrix(0.05,0,0,0.05,20,0)" xlink:href="#cb"/><use transform="matrix(0.05,0,0,0.05,30,0)" xlink:href="#bU"/><use transform="matrix(0.05,0,0,0.05,35.95,0)" xlink:href="#bY"/><use transform="matrix(0.05,0,0,0.05,45.95,0)" xlink:href="#bV"/><use transform="matrix(0.05,0,0,0.05,55.95,0)" xlink:href="#bW"/><use transform="matrix(0.05,0,0,0.05,65.95,0)" xlink:href="#bF"/></g><path d="M121-226c-27-7-43 5-38 36h38v33H83V0H34v-157H6v-33h28c-9-59 32-81 87-68v32" id="cc"/><g id="x"><use transform="matrix(0.05,0,0,0.05,0,0)" xlink:href="#bb"/><use transform="matrix(0.05,0,0,0.05,9.950000000000001,0)" xlink:href="#bm"/><use transform="matrix(0.05,0,0,0.05,16.950000000000003,0)" xlink:href="#bK"/><use transform="matrix(0.05,0,0,0.05,26.950000000000003,0)" xlink:href="#bj"/><use transform="matrix(0.05,0,0,0.05,37.900000000000006,0)" xlink:href="#br"/><use transform="matrix(0.05,0,0,0.05,47.900000000000006,0)" xlink:href="#cc"/><use transform="matrix(0.05,0,0,0.05,53.85,0)" xlink:href="#bl"/><use transform="matrix(0.05,0,0,0.05,63.85,0)" xlink:href="#bm"/></g><g id="y"><use transform="matrix(0.05,0,0,0.05,0,0)" xlink:href="#bq"/><use transform="matrix(0.05,0,0,0.05,10.950000000000001,0)" xlink:href="#cc"/></g><g id="z"><use transform="matrix(0.05,0,0,0.05,0,0)" xlink:href="#bJ"/><use transform="matrix(0.05,0,0,0.05,14.950000000000001,0)" xlink:href="#bq"/><use transform="matrix(0.05,0,0,0.05,25.900000000000002,0)" xlink:href="#bp"/><use transform="matrix(0.05,0,0,0.05,35.900000000000006,0)" xlink:href="#bK"/><use transform="matrix(0.05,0,0,0.05,45.900000000000006,0)" xlink:href="#bL"/><use transform="matrix(0.05,0,0,0.05,56.85,0)" xlink:href="#bM"/><use transform="matrix(0.05,0,0,0.05,61.85,0)" xlink:href="#bl"/></g><path d="M135-194c53 0 70 44 70 98 0 56-19 98-73 100-31 1-45-17-59-34 3 33 2 69 2 105H25l-1-265h48c2 10 0 23 3 31 11-24 29-35 60-35zM114-30c33 0 39-31 40-66 0-38-9-64-40-64-56 0-55 130 0 130" id="cd"/><path d="M123 10C108 53 80 86 19 72V37c35 8 53-11 59-39L3-190h52l48 148c12-52 28-100 44-148h51" id="ce"/><g id="A"><use transform="matrix(0.05,0,0,0.05,0,0)" xlink:href="#bG"/><use transform="matrix(0.05,0,0,0.05,12,0)" xlink:href="#bm"/><use transform="matrix(0.05,0,0,0.05,19,0)" xlink:href="#bq"/><use transform="matrix(0.05,0,0,0.05,29.950000000000003,0)" xlink:href="#cd"/><use transform="matrix(0.05,0,0,0.05,40.900000000000006,0)" xlink:href="#bl"/><use transform="matrix(0.05,0,0,0.05,50.900000000000006,0)" xlink:href="#bm"/><use transform="matrix(0.05,0,0,0.05,57.900000000000006,0)" xlink:href="#bk"/><use transform="matrix(0.05,0,0,0.05,63.85,0)" xlink:href="#ce"/></g><path d="M26 75v-336h71v23H56V52h41v23H26" id="cf"/><path d="M24 0v-261h32V0H24" id="cg"/><g id="B"><use transform="matrix(0.05,0,0,0.05,0,0)" xlink:href="#cf"/><use transform="matrix(0.05,0,0,0.05,5,0)" xlink:href="#bR"/><use transform="matrix(0.05,0,0,0.05,17,0)" xlink:href="#bv"/><use transform="matrix(0.05,0,0,0.05,27,0)" xlink:href="#cg"/><use transform="matrix(0.05,0,0,0.05,30.950000000000003,0)" xlink:href="#bD"/><use transform="matrix(0.05,0,0,0.05,40.95,0)" xlink:href="#bE"/></g><g id="C"><use transform="matrix(0.05,0,0,0.05,0,0)" xlink:href="#by"/><use transform="matrix(0.05,0,0,0.05,10,0)" xlink:href="#bz"/></g><path d="M143 4C61 4 22-44 18-125c-5-107 100-154 193-111 17 8 29 25 37 43l-32 9c-13-25-37-40-76-40-61 0-88 39-88 99 0 61 29 100 91 101 35 0 62-11 79-27v-45h-74v-28h105v86C228-13 192 4 143 4" id="ch"/><path d="M85-194c31 0 48 13 60 33l-1-100h32l1 261h-30c-2-10 0-23-3-31C134-8 116 4 85 4 32 4 16-35 15-94c0-66 23-100 70-100zm9 24c-40 0-46 34-46 75 0 40 6 74 45 74 42 0 51-32 51-76 0-42-9-74-50-73" id="ci"/><g id="D"><use transform="matrix(0.05,0,0,0.05,0,0)" xlink:href="#ch"/><use transform="matrix(0.05,0,0,0.05,14,0)" xlink:href="#by"/><use transform="matrix(0.05,0,0,0.05,24,0)" xlink:href="#by"/><use transform="matrix(0.05,0,0,0.05,34,0)" xlink:href="#ci"/><use transform="matrix(0.05,0,0,0.05,44,0)" xlink:href="#bE"/></g><path d="M205 0l-28-72H64L36 0H1l101-248h38L239 0h-34zm-38-99l-47-123c-12 45-31 82-46 123h93" id="cj"/><path d="M68-38c1 34 0 65-14 84H32c9-13 17-26 17-46H33v-38h35" id="ck"/><g id="E"><use transform="matrix(0.05,0,0,0.05,0,0)" xlink:href="#cj"/><use transform="matrix(0.05,0,0,0.05,12,0)" xlink:href="#bw"/><use transform="matrix(0.05,0,0,0.05,21,0)" xlink:href="#bx"/><use transform="matrix(0.05,0,0,0.05,26,0)" xlink:href="#ck"/></g><path d="M3 75V52h41v-290H3v-23h71V75H3" id="cl"/><g id="F"><use transform="matrix(0.05,0,0,0.05,0,0)" xlink:href="#bY"/><use transform="matrix(0.05,0,0,0.05,10,0)" xlink:href="#ca"/><use transform="matrix(0.05,0,0,0.05,20,0)" xlink:href="#bV"/><use transform="matrix(0.05,0,0,0.05,30,0)" xlink:href="#cb"/><use transform="matrix(0.05,0,0,0.05,40,0)" xlink:href="#cl"/></g><g id="G"><use transform="matrix(0.05,0,0,0.05,0,0)" xlink:href="#bi"/><use transform="matrix(0.05,0,0,0.05,5,0)" xlink:href="#bN"/><use transform="matrix(0.05,0,0,0.05,21,0)" xlink:href="#bN"/><use transform="matrix(0.05,0,0,0.05,37,0)" xlink:href="#bq"/><use transform="matrix(0.05,0,0,0.05,47.95,0)" xlink:href="#bp"/><use transform="matrix(0.05,0,0,0.05,57.95,0)" xlink:href="#bK"/><use transform="matrix(0.05,0,0,0.05,67.95,0)" xlink:href="#bL"/><use transform="matrix(0.05,0,0,0.05,78.9,0)" xlink:href="#bM"/><use transform="matrix(0.05,0,0,0.05,83.9,0)" xlink:href="#bl"/></g><path d="M67-125c0 54 23 88 75 88 28 0 53-7 68-21v-34h-60v-39h108v91C232-14 192 4 140 4 58 4 20-42 15-125 8-236 126-280 215-234c19 10 29 26 37 47l-47 15c-11-23-29-39-63-39-53 1-75 33-75 86" id="cm"/><g id="H"><use transform="matrix(0.05,0,0,0.05,0,0)" xlink:href="#cm"/><use transform="matrix(0.05,0,0,0.05,14,0)" xlink:href="#bl"/><use transform="matrix(0.05,0,0,0.05,24,0)" xlink:href="#bj"/><use transform="matrix(0.05,0,0,0.05,34.95,0)" xlink:href="#bl"/><use transform="matrix(0.05,0,0,0.05,44.95,0)" xlink:href="#bm"/><use transform="matrix(0.05,0,0,0.05,51.95,0)" xlink:href="#bK"/><use transform="matrix(0.05,0,0,0.05,61.95,0)" xlink:href="#bM"/></g><g id="I"><use transform="matrix(0.05,0,0,0.05,0,0)" xlink:href="#bG"/><use transform="matrix(0.05,0,0,0.05,12,0)" xlink:href="#bm"/><use transform="matrix(0.05,0,0,0.05,19,0)" xlink:href="#bq"/><use transform="matrix(0.05,0,0,0.05,29.950000000000003,0)" xlink:href="#bp"/><use transform="matrix(0.05,0,0,0.05,39.95,0)" xlink:href="#bo"/><use transform="matrix(0.05,0,0,0.05,44.95,0)" xlink:href="#br"/><use transform="matrix(0.05,0,0,0.05,54.95,0)" xlink:href="#bo"/><use transform="matrix(0.05,0,0,0.05,59.95,0)" xlink:href="#bq"/><use transform="matrix(0.05,0,0,0.05,70.9,0)" xlink:href="#bj"/><use transform="matrix(0.05,0,0,0.05,81.85000000000001,0)" xlink:href="#br"/></g><g id="J"><use transform="matrix(0.05,0,0,0.05,0,0)" xlink:href="#cf"/><use transform="matrix(0.05,0,0,0.05,5,0)" xlink:href="#bR"/><use transform="matrix(0.05,0,0,0.05,17,0)" xlink:href="#bE"/><use transform="matrix(0.05,0,0,0.05,26,0)" xlink:href="#bS"/></g><path d="M134-131c28 9 52 24 51 62-1 50-34 73-85 73S17-19 16-69c0-36 21-54 49-61-75-25-45-126 34-121 46 3 78 18 79 63 0 33-17 51-44 57zm-34-11c31 1 46-15 46-44 0-28-17-43-47-42-29 0-46 13-45 42 1 28 16 44 46 44zm1 122c35 0 51-18 51-52 0-30-18-46-53-46-33 0-51 17-51 47 0 34 19 51 53 51" id="cn"/><g id="K"><use transform="matrix(0.05,0,0,0.05,0,0)" xlink:href="#bV"/><use transform="matrix(0.05,0,0,0.05,10,0)" xlink:href="#cn"/><use transform="matrix(0.05,0,0,0.05,20,0)" xlink:href="#bU"/><use transform="matrix(0.05,0,0,0.05,25.950000000000003,0)" xlink:href="#bT"/><use transform="matrix(0.05,0,0,0.05,35.95,0)" xlink:href="#bV"/><use transform="matrix(0.05,0,0,0.05,45.95,0)" xlink:href="#cj"/><use transform="matrix(0.05,0,0,0.05,57.95,0)" xlink:href="#ck"/></g><path d="M127-220V0H93v-220H8v-28h204v28h-85" id="co"/><path d="M30-248c87 1 191-15 191 75 0 78-77 80-158 76V0H30v-248zm33 125c57 0 124 11 124-50 0-59-68-47-124-48v98" id="cp"/><g id="L"><use transform="matrix(0.05,0,0,0.05,0,0)" xlink:href="#co"/><use transform="matrix(0.05,0,0,0.05,10.950000000000001,0)" xlink:href="#cp"/><use transform="matrix(0.05,0,0,0.05,21.6,0)" xlink:href="#cj"/><use transform="matrix(0.05,0,0,0.05,33.6,0)" xlink:href="#cl"/></g><path d="M190-63c-7 42-38 67-86 67-59 0-84-38-90-98-12-110 154-137 174-36l-49 2c-2-19-15-32-35-32-30 0-35 28-38 64-6 74 65 87 74 30" id="cq"/><g id="M"><use transform="matrix(0.05,0,0,0.05,0,0)" xlink:href="#bf"/><use transform="matrix(0.05,0,0,0.05,12,0)" xlink:href="#cd"/><use transform="matrix(0.05,0,0,0.05,22.950000000000003,0)" xlink:href="#bl"/><use transform="matrix(0.05,0,0,0.05,32.95,0)" xlink:href="#cq"/><use transform="matrix(0.05,0,0,0.05,42.95,0)" xlink:href="#bo"/><use transform="matrix(0.05,0,0,0.05,47.95,0)" xlink:href="#cc"/><use transform="matrix(0.05,0,0,0.05,53.900000000000006,0)" xlink:href="#bo"/><use transform="matrix(0.05,0,0,0.05,58.900000000000006,0)" xlink:href="#cq"/></g><g id="N"><use transform="matrix(0.05,0,0,0.05,0,0)" xlink:href="#bf"/><use transform="matrix(0.05,0,0,0.05,12,0)" xlink:href="#bK"/><use transform="matrix(0.05,0,0,0.05,22,0)" xlink:href="#bM"/><use transform="matrix(0.05,0,0,0.05,27,0)" xlink:href="#bl"/><use transform="matrix(0.05,0,0,0.05,37,0)" xlink:href="#br"/></g><g id="O"><use transform="matrix(0.05,0,0,0.05,0,0)" xlink:href="#bd"/><use transform="matrix(0.05,0,0,0.05,12.950000000000001,0)" xlink:href="#cq"/><use transform="matrix(0.05,0,0,0.05,22.950000000000003,0)" xlink:href="#bk"/></g><path d="M23 0v-37h61v-169l-59 37v-38l62-41h46v211h57V0H23" id="cr"/><path d="M99-251c69 0 84 53 88 123 5 99-61 162-144 118-15-8-21-25-26-45l46-6c4 31 50 33 63 7 7-15 12-36 12-60-9 18-29 28-54 28-48 0-72-32-72-82 0-55 31-83 87-83zm-1 128c24 0 37-16 37-39 0-27-10-51-37-51-25 0-35 19-35 45 0 25 10 45 35 45" id="cs"/><path d="M182-182c0 78-84 86-111 141h115V0H12c-6-101 99-100 120-180 1-22-12-31-33-32-23 0-32 14-35 34l-49-3c5-45 32-70 84-70 51 0 83 22 83 69" id="ct"/><path d="M139-81c0-46-55-55-73-27H18l9-140h149v37H72l-4 63c44-38 133-4 122 66C201 21 21 35 11-62l49-4c5 18 15 30 39 30 26 0 40-18 40-45" id="cu"/><g id="P"><use transform="matrix(0.05,0,0,0.05,0,0)" xlink:href="#cr"/><use transform="matrix(0.05,0,0,0.05,10,0)" xlink:href="#cs"/><use transform="matrix(0.05,0,0,0.05,20,0)" xlink:href="#ct"/><use transform="matrix(0.05,0,0,0.05,30,0)" xlink:href="#cu"/></g><g id="Q"><use transform="matrix(0.05,0,0,0.05,0,0)" xlink:href="#bO"/><use transform="matrix(0.05,0,0,0.05,12.950000000000001,0)" xlink:href="#bP"/><use transform="matrix(0.05,0,0,0.05,22.950000000000003,0)" xlink:href="#bv"/><use transform="matrix(0.05,0,0,0.05,32.95,0)" xlink:href="#bA"/><use transform="matrix(0.05,0,0,0.05,42.95,0)" xlink:href="#bx"/><use transform="matrix(0.05,0,0,0.05,47.95,0)" xlink:href="#bD"/><use transform="matrix(0.05,0,0,0.05,57.95,0)" xlink:href="#bB"/></g><g id="R"><use transform="matrix(0.05,0,0,0.05,0,0)" xlink:href="#bQ"/><use transform="matrix(0.05,0,0,0.05,5,0)" xlink:href="#bQ"/><use transform="matrix(0.05,0,0,0.05,10,0)" xlink:href="#bQ"/></g><g id="S"><use transform="matrix(0.05,0,0,0.05,0,0)" xlink:href="#cf"/><use transform="matrix(0.05,0,0,0.05,5,0)" xlink:href="#bR"/><use transform="matrix(0.05,0,0,0.05,17,0)" xlink:href="#bE"/><use transform="matrix(0.05,0,0,0.05,26,0)" xlink:href="#bS"/></g><path d="M155-56V0h-30v-56H8v-25l114-167h33v167h35v25h-35zm-30-156c-27 46-58 90-88 131h88v-131" id="cv"/><g id="T"><use transform="matrix(0.05,0,0,0.05,0,0)" xlink:href="#bT"/><use transform="matrix(0.05,0,0,0.05,10,0)" xlink:href="#cv"/><use transform="matrix(0.05,0,0,0.05,20,0)" xlink:href="#bU"/><use transform="matrix(0.05,0,0,0.05,25.950000000000003,0)" xlink:href="#bT"/><use transform="matrix(0.05,0,0,0.05,35.95,0)" xlink:href="#bW"/><use transform="matrix(0.05,0,0,0.05,45.95,0)" xlink:href="#cl"/></g><path d="M195-6C206 82 75 100 31 46c-4-6-6-13-8-21l49-6c3 16 16 24 34 25 40 0 42-37 40-79-11 22-30 35-61 35-53 0-70-43-70-97 0-56 18-96 73-97 30 0 46 14 59 34l2-30h47zm-90-29c32 0 41-27 41-63 0-35-9-62-40-62-32 0-39 29-40 63 0 36 9 62 39 62" id="cw"/><g id="U"><use transform="matrix(0.05,0,0,0.05,0,0)" xlink:href="#bJ"/><use transform="matrix(0.05,0,0,0.05,14.950000000000001,0)" xlink:href="#bq"/><use transform="matrix(0.05,0,0,0.05,25.900000000000002,0)" xlink:href="#bm"/><use transform="matrix(0.05,0,0,0.05,32.900000000000006,0)" xlink:href="#bk"/><use transform="matrix(0.05,0,0,0.05,38.85000000000001,0)" xlink:href="#cw"/><use transform="matrix(0.05,0,0,0.05,49.80000000000001,0)" xlink:href="#bK"/><use transform="matrix(0.05,0,0,0.05,59.80000000000001,0)" xlink:href="#cw"/><use transform="matrix(0.05,0,0,0.05,70.75000000000001,0)" xlink:href="#bl"/><use transform="matrix(0.05,0,0,0.05,80.75000000000001,0)" xlink:href="#br"/></g><path d="M168-19C124 19 11 11 16-68c3-43 29-60 59-75-25-44-12-111 53-106 37 3 64 15 64 52 0 43-40 52-69 68 12 22 27 41 43 59 14-19 21-38 28-64l37 13c-8 29-19 52-34 74 12 10 32 16 52 10v35c-28 11-65-2-81-17zm-58-139c19-9 43-14 43-39 0-14-10-22-25-22-34 0-33 41-18 61zM60-68c-3 40 55 47 79 25-18-20-34-42-48-67-18 8-30 20-31 42" id="cx"/><use transform="matrix(0.05,0,0,0.05,0,0)" xlink:href="#cx" id="V"/><path d="M67-125c0 53 21 87 73 88 37 1 54-22 65-47l45 17C233-25 199 4 140 4 58 4 20-42 15-125 8-235 124-281 211-232c18 10 29 29 36 50l-46 12c-8-25-30-41-62-41-52 0-71 34-72 86" id="cy"/><g id="W"><use transform="matrix(0.05,0,0,0.05,0,0)" xlink:href="#cy"/><use transform="matrix(0.05,0,0,0.05,12.950000000000001,0)" xlink:href="#bI"/><use transform="matrix(0.05,0,0,0.05,23.900000000000002,0)" xlink:href="#bK"/><use transform="matrix(0.05,0,0,0.05,33.900000000000006,0)" xlink:href="#bm"/><use transform="matrix(0.05,0,0,0.05,40.900000000000006,0)" xlink:href="#cw"/><use transform="matrix(0.05,0,0,0.05,51.85,0)" xlink:href="#bl"/><use transform="matrix(0.05,0,0,0.05,61.85,0)" xlink:href="#br"/></g><g id="X"><use transform="matrix(0.05,0,0,0.05,0,0)" xlink:href="#bQ"/><use transform="matrix(0.05,0,0,0.05,5,0)" xlink:href="#bX"/></g><g id="Y"><use transform="matrix(0.05,0,0,0.05,0,0)" xlink:href="#bT"/><use transform="matrix(0.05,0,0,0.05,10,0)" xlink:href="#cn"/><use transform="matrix(0.05,0,0,0.05,20,0)" xlink:href="#bU"/><use transform="matrix(0.05,0,0,0.05,25.950000000000003,0)" xlink:href="#bY"/><use transform="matrix(0.05,0,0,0.05,35.95,0)" xlink:href="#cb"/><use transform="matrix(0.05,0,0,0.05,45.95,0)" xlink:href="#cv"/><use transform="matrix(0.05,0,0,0.05,55.95,0)" xlink:href="#cl"/></g><path d="M24 0v-248h52v208h133V0H24" id="cz"/><g id="Z"><use transform="matrix(0.05,0,0,0.05,0,0)" xlink:href="#cz"/><use transform="matrix(0.05,0,0,0.05,10.950000000000001,0)" xlink:href="#bl"/><use transform="matrix(0.05,0,0,0.05,20.950000000000003,0)" xlink:href="#bK"/><use transform="matrix(0.05,0,0,0.05,30.950000000000003,0)" xlink:href="#br"/><use transform="matrix(0.05,0,0,0.05,40.95,0)" xlink:href="#bl"/></g><g id="aa"><use transform="matrix(0.05,0,0,0.05,0,0)" xlink:href="#cy"/><use transform="matrix(0.05,0,0,0.05,12.950000000000001,0)" xlink:href="#bI"/><use transform="matrix(0.05,0,0,0.05,23.900000000000002,0)" xlink:href="#bK"/><use transform="matrix(0.05,0,0,0.05,33.900000000000006,0)" xlink:href="#cd"/><use transform="matrix(0.05,0,0,0.05,44.85000000000001,0)" xlink:href="#bk"/><use transform="matrix(0.05,0,0,0.05,50.80000000000001,0)" xlink:href="#bl"/><use transform="matrix(0.05,0,0,0.05,60.80000000000001,0)" xlink:href="#bm"/></g><use transform="matrix(0.05,0,0,0.05,0,0)" xlink:href="#bn" id="ab"/><g id="ac"><use transform="matrix(0.05,0,0,0.05,0,0)" xlink:href="#bY"/><use transform="matrix(0.05,0,0,0.05,10,0)" xlink:href="#cb"/><use transform="matrix(0.05,0,0,0.05,20,0)" xlink:href="#bW"/><use transform="matrix(0.05,0,0,0.05,30,0)" xlink:href="#bU"/><use transform="matrix(0.05,0,0,0.05,35.95,0)" xlink:href="#bY"/><use transform="matrix(0.05,0,0,0.05,44.6,0)" xlink:href="#bY"/><use transform="matrix(0.05,0,0,0.05,54.6,0)" xlink:href="#bW"/><use transform="matrix(0.05,0,0,0.05,64.6,0)" xlink:href="#cl"/></g><path d="M144 0l-44-69L55 0H2l70-98-66-92h53l41 62 40-62h54l-67 91 71 99h-54" id="cA"/><g id="ad"><use transform="matrix(0.05,0,0,0.05,0,0)" xlink:href="#bh"/><use transform="matrix(0.05,0,0,0.05,12,0)" xlink:href="#cA"/><use transform="matrix(0.05,0,0,0.05,22,0)" xlink:href="#cq"/><use transform="matrix(0.05,0,0,0.05,32,0)" xlink:href="#bI"/><use transform="matrix(0.05,0,0,0.05,42.95,0)" xlink:href="#bK"/><use transform="matrix(0.05,0,0,0.05,52.95,0)" xlink:href="#bj"/><use transform="matrix(0.05,0,0,0.05,63.900000000000006,0)" xlink:href="#cw"/><use transform="matrix(0.05,0,0,0.05,74.85000000000001,0)" xlink:href="#bl"/><use transform="matrix(0.05,0,0,0.05,84.85000000000001,0)" xlink:href="#br"/></g><g id="ae"><use transform="matrix(0.05,0,0,0.05,0,0)" xlink:href="#bX"/><use transform="matrix(0.05,0,0,0.05,11.65,0)" xlink:href="#bC"/></g><g id="af"><use transform="matrix(0.05,0,0,0.05,0,0)" xlink:href="#cf"/><use transform="matrix(0.05,0,0,0.05,5,0)" xlink:href="#bR"/><use transform="matrix(0.05,0,0,0.05,17,0)" xlink:href="#bE"/><use transform="matrix(0.05,0,0,0.05,26,0)" xlink:href="#bS"/></g><g id="ag"><use transform="matrix(0.05,0,0,0.05,0,0)" xlink:href="#bY"/><use transform="matrix(0.05,0,0,0.05,8.65,0)" xlink:href="#bY"/><use transform="matrix(0.05,0,0,0.05,18.65,0)" xlink:href="#cn"/><use transform="matrix(0.05,0,0,0.05,28.649999999999995,0)" xlink:href="#bU"/><use transform="matrix(0.05,0,0,0.05,34.6,0)" xlink:href="#bY"/><use transform="matrix(0.05,0,0,0.05,44.6,0)" xlink:href="#bZ"/><use transform="matrix(0.05,0,0,0.05,54.6,0)" xlink:href="#bY"/><use transform="matrix(0.05,0,0,0.05,64.6,0)" xlink:href="#cl"/></g><g id="ah"><use transform="matrix(0.05,0,0,0.05,0,0)" xlink:href="#cm"/><use transform="matrix(0.05,0,0,0.05,14,0)" xlink:href="#bo"/><use transform="matrix(0.05,0,0,0.05,19,0)" xlink:href="#cc"/><use transform="matrix(0.05,0,0,0.05,24.95,0)" xlink:href="#bk"/><use transform="matrix(0.05,0,0,0.05,30.899999999999995,0)" xlink:href="#br"/></g><g id="ai"><use transform="matrix(0.05,0,0,0.05,0,0)" xlink:href="#bX"/><use transform="matrix(0.05,0,0,0.05,12,0)" xlink:href="#bQ"/><use transform="matrix(0.05,0,0,0.05,17,0)" xlink:href="#bQ"/></g><g id="aj"><use transform="matrix(0.05,0,0,0.05,0,0)" xlink:href="#bY"/><use transform="matrix(0.05,0,0,0.05,10,0)" xlink:href="#bZ"/><use transform="matrix(0.05,0,0,0.05,20,0)" xlink:href="#bZ"/><use transform="matrix(0.05,0,0,0.05,30,0)" xlink:href="#bU"/><use transform="matrix(0.05,0,0,0.05,35.95,0)" xlink:href="#bY"/><use transform="matrix(0.05,0,0,0.05,45.95,0)" xlink:href="#bZ"/><use transform="matrix(0.05,0,0,0.05,55.95,0)" xlink:href="#ca"/><use transform="matrix(0.05,0,0,0.05,65.95,0)" xlink:href="#cl"/></g><g id="ak"><use transform="matrix(0.05,0,0,0.05,0,0)" xlink:href="#bd"/><use transform="matrix(0.05,0,0,0.05,12.950000000000001,0)" xlink:href="#cq"/><use transform="matrix(0.05,0,0,0.05,22.950000000000003,0)" xlink:href="#bk"/><use transform="matrix(0.05,0,0,0.05,28.900000000000002,0)" xlink:href="#bo"/><use transform="matrix(0.05,0,0,0.05,33.900000000000006,0)" xlink:href="#bq"/><use transform="matrix(0.05,0,0,0.05,44.85000000000001,0)" xlink:href="#bj"/><use transform="matrix(0.05,0,0,0.05,55.80000000000001,0)" xlink:href="#bK"/><use transform="matrix(0.05,0,0,0.05,65.80000000000001,0)" xlink:href="#bL"/><use transform="matrix(0.05,0,0,0.05,76.75000000000001,0)" xlink:href="#bM"/><use transform="matrix(0.05,0,0,0.05,81.75000000000001,0)" xlink:href="#bl"/></g><g id="al"><use transform="matrix(0.05,0,0,0.05,0,0)" xlink:href="#cy"/><use transform="matrix(0.05,0,0,0.05,12.950000000000001,0)" xlink:href="#bM"/><use transform="matrix(0.05,0,0,0.05,17.950000000000003,0)" xlink:href="#bK"/><use transform="matrix(0.05,0,0,0.05,27.950000000000003,0)" xlink:href="#bo"/><use transform="matrix(0.05,0,0,0.05,32.95,0)" xlink:href="#bN"/><use transform="matrix(0.05,0,0,0.05,48.95,0)" xlink:href="#br"/></g><g id="am"><use transform="matrix(0.05,0,0,0.05,0,0)" xlink:href="#bX"/><use transform="matrix(0.05,0,0,0.05,12,0)" xlink:href="#bQ"/><use transform="matrix(0.05,0,0,0.05,17,0)" xlink:href="#bQ"/><use transform="matrix(0.05,0,0,0.05,22,0)" xlink:href="#bQ"/></g><g id="an"><use transform="matrix(0.05,0,0,0.05,0,0)" xlink:href="#bY"/><use transform="matrix(0.05,0,0,0.05,10,0)" xlink:href="#bV"/><use transform="matrix(0.05,0,0,0.05,20,0)" xlink:href="#cb"/><use transform="matrix(0.05,0,0,0.05,30,0)" xlink:href="#bU"/><use transform="matrix(0.05,0,0,0.05,35.95,0)" xlink:href="#bY"/><use transform="matrix(0.05,0,0,0.05,45.95,0)" xlink:href="#bV"/><use transform="matrix(0.05,0,0,0.05,55.95,0)" xlink:href="#bW"/><use transform="matrix(0.05,0,0,0.05,65.95,0)" xlink:href="#cl"/></g><path d="M14-72v-43h91v43H14" id="cB"/><g id="ao"><use transform="matrix(0.05,0,0,0.05,0,0)" xlink:href="#be"/><use transform="matrix(0.05,0,0,0.05,12.950000000000001,0)" xlink:href="#bq"/><use transform="matrix(0.05,0,0,0.05,23.900000000000002,0)" xlink:href="#bj"/><use transform="matrix(0.05,0,0,0.05,34.85,0)" xlink:href="#cB"/><use transform="matrix(0.05,0,0,0.05,40.800000000000004,0)" xlink:href="#bi"/><use transform="matrix(0.05,0,0,0.05,45.800000000000004,0)" xlink:href="#bj"/><use transform="matrix(0.05,0,0,0.05,56.75,0)" xlink:href="#bk"/><use transform="matrix(0.05,0,0,0.05,62.70000000000002,0)" xlink:href="#bl"/><use transform="matrix(0.05,0,0,0.05,72.70000000000002,0)" xlink:href="#bm"/></g><path d="M117-194c89-4 53 116 60 194h-32v-121c0-31-8-49-39-48C34-167 62-67 57 0H25l-1-190h30c1 10-1 24 2 32 11-22 29-35 61-36" id="cC"/><g id="ap"><use transform="matrix(0.05,0,0,0.05,0,0)" xlink:href="#by"/><use transform="matrix(0.05,0,0,0.05,10,0)" xlink:href="#bA"/><use transform="matrix(0.05,0,0,0.05,20,0)" xlink:href="#bD"/><use transform="matrix(0.05,0,0,0.05,30,0)" xlink:href="#bB"/><use transform="matrix(0.05,0,0,0.05,35.95,0)" xlink:href="#bv"/><use transform="matrix(0.05,0,0,0.05,45.95,0)" xlink:href="#bx"/><use transform="matrix(0.05,0,0,0.05,50.95,0)" xlink:href="#bC"/><use transform="matrix(0.05,0,0,0.05,54.900000000000006,0)" xlink:href="#by"/><use transform="matrix(0.05,0,0,0.05,64.9,0)" xlink:href="#cC"/></g><path d="M206 0h-36l-40-164L89 0H53L-1-190h32L70-26l43-164h34l41 164 42-164h31" id="cD"/><g id="aq"><use transform="matrix(0.05,0,0,0.05,0,0)" xlink:href="#cg"/><use transform="matrix(0.05,0,0,0.05,3.95,0)" xlink:href="#bv"/><use transform="matrix(0.05,0,0,0.05,13.949999999999998,0)" xlink:href="#cD"/></g><path d="M177-190C167-65 218 103 67 71c-23-6-38-20-44-43l32-5c15 47 100 32 89-28v-30C133-14 115 1 83 1 29 1 15-40 15-95c0-56 16-97 71-98 29-1 48 16 59 35 1-10 0-23 2-32h30zM94-22c36 0 50-32 50-73 0-42-14-75-50-75-39 0-46 34-46 75s6 73 46 73" id="cE"/><g id="ar"><use transform="matrix(0.05,0,0,0.05,0,0)" xlink:href="#bD"/><use transform="matrix(0.05,0,0,0.05,10,0)" xlink:href="#cE"/><use transform="matrix(0.05,0,0,0.05,20,0)" xlink:href="#bS"/></g><path d="M84 4C-5 8 30-112 23-190h32v120c0 31 7 50 39 49 72-2 45-101 50-169h31l1 190h-30c-1-10 1-25-2-33-11 22-28 36-60 37" id="cF"/><g id="as"><use transform="matrix(0.05,0,0,0.05,0,0)" xlink:href="#bR"/><use transform="matrix(0.05,0,0,0.05,12,0)" xlink:href="#cF"/><use transform="matrix(0.05,0,0,0.05,22,0)" xlink:href="#bw"/><use transform="matrix(0.05,0,0,0.05,31,0)" xlink:href="#bw"/><use transform="matrix(0.05,0,0,0.05,40,0)" xlink:href="#bD"/><use transform="matrix(0.05,0,0,0.05,50,0)" xlink:href="#bE"/><use transform="matrix(0.05,0,0,0.05,59,0)" xlink:href="#bE"/><use transform="matrix(0.05,0,0,0.05,68,0)" xlink:href="#bC"/><use transform="matrix(0.05,0,0,0.05,71.95,0)" xlink:href="#by"/><use transform="matrix(0.05,0,0,0.05,81.95,0)" xlink:href="#cC"/><use transform="matrix(0.05,0,0,0.05,91.95,0)" xlink:href="#ck"/></g><path d="M108 0H70L1-190h34L89-25l56-165h34" id="cG"/><g id="at"><use transform="matrix(0.05,0,0,0.05,0,0)" xlink:href="#bQ"/><use transform="matrix(0.05,0,0,0.05,5,0)" xlink:href="#cC"/><use transform="matrix(0.05,0,0,0.05,15,0)" xlink:href="#bE"/><use transform="matrix(0.05,0,0,0.05,24,0)" xlink:href="#by"/><use transform="matrix(0.05,0,0,0.05,34,0)" xlink:href="#cg"/><use transform="matrix(0.05,0,0,0.05,37.95,0)" xlink:href="#cG"/><use transform="matrix(0.05,0,0,0.05,46.95,0)" xlink:href="#bD"/><use transform="matrix(0.05,0,0,0.05,56.95,0)" xlink:href="#cC"/><use transform="matrix(0.05,0,0,0.05,66.95,0)" xlink:href="#bw"/><use transform="matrix(0.05,0,0,0.05,75.95,0)" xlink:href="#bu"/><use transform="matrix(0.05,0,0,0.05,83.60000000000001,0)" xlink:href="#ck"/></g><g id="au"><use transform="matrix(0.05,0,0,0.05,0,0)" xlink:href="#by"/><use transform="matrix(0.05,0,0,0.05,10,0)" xlink:href="#bB"/><use transform="matrix(0.05,0,0,0.05,15.949999999999998,0)" xlink:href="#ci"/><use transform="matrix(0.05,0,0,0.05,25.950000000000003,0)" xlink:href="#bD"/><use transform="matrix(0.05,0,0,0.05,35.95,0)" xlink:href="#bB"/></g><g id="av"><use transform="matrix(0.05,0,0,0.05,0,0)" xlink:href="#bO"/><use transform="matrix(0.05,0,0,0.05,12.950000000000001,0)" xlink:href="#by"/><use transform="matrix(0.05,0,0,0.05,22.950000000000003,0)" xlink:href="#cF"/><use transform="matrix(0.05,0,0,0.05,32.95,0)" xlink:href="#bB"/><use transform="matrix(0.05,0,0,0.05,38.900000000000006,0)" xlink:href="#bx"/></g><g id="aw"><use transform="matrix(0.05,0,0,0.05,0,0)" xlink:href="#bD"/><use transform="matrix(0.05,0,0,0.05,10,0)" xlink:href="#bx"/><use transform="matrix(0.05,0,0,0.05,15,0)" xlink:href="#bw"/><use transform="matrix(0.05,0,0,0.05,24,0)" xlink:href="#bF"/></g><g id="ax"><use transform="matrix(0.05,0,0,0.05,0,0)" xlink:href="#bb"/><use transform="matrix(0.05,0,0,0.05,9.600000000000001,0)" xlink:href="#bl"/><use transform="matrix(0.05,0,0,0.05,19.6,0)" xlink:href="#br"/><use transform="matrix(0.05,0,0,0.05,29.6,0)" xlink:href="#bk"/><use transform="matrix(0.05,0,0,0.05,35.550000000000004,0)" xlink:href="#bK"/><use transform="matrix(0.05,0,0,0.05,45.550000000000004,0)" xlink:href="#bN"/><use transform="matrix(0.05,0,0,0.05,61.550000000000004,0)" xlink:href="#bl"/><use transform="matrix(0.05,0,0,0.05,71.55000000000001,0)" xlink:href="#bj"/><use transform="matrix(0.05,0,0,0.05,82.50000000000001,0)" xlink:href="#bk"/><use transform="matrix(0.05,0,0,0.05,88.45000000000002,0)" xlink:href="#bK"/><use transform="matrix(0.05,0,0,0.05,98.45000000000002,0)" xlink:href="#bm"/><use transform="matrix(0.05,0,0,0.05,105.45,0)" xlink:href="#ce"/></g><path d="M88-194c31-1 46 15 58 34l-1-101h50l1 261h-48c-2-10 0-23-3-31C134-8 116 4 84 4 32 4 16-41 15-95c0-56 19-97 73-99zm17 164c33 0 40-30 41-66 1-37-9-64-41-64s-38 30-39 65c0 43 13 65 39 65" id="cH"/><g id="ay"><use transform="matrix(0.05,0,0,0.05,0,0)" xlink:href="#bi"/><use transform="matrix(0.05,0,0,0.05,5,0)" xlink:href="#bj"/><use transform="matrix(0.05,0,0,0.05,15.950000000000001,0)" xlink:href="#cH"/><use transform="matrix(0.05,0,0,0.05,26.900000000000002,0)" xlink:href="#bo"/><use transform="matrix(0.05,0,0,0.05,31.900000000000002,0)" xlink:href="#bK"/><use transform="matrix(0.05,0,0,0.05,41.900000000000006,0)" xlink:href="#bj"/></g><path d="M85 4C-2 5 27-109 22-190h50c7 57-23 150 33 157 60-5 35-97 40-157h50l1 190h-47c-2-12 1-28-3-38-12 25-28 42-61 42" id="cI"/><g id="az"><use transform="matrix(0.05,0,0,0.05,0,0)" xlink:href="#bf"/><use transform="matrix(0.05,0,0,0.05,12,0)" xlink:href="#cI"/><use transform="matrix(0.05,0,0,0.05,22.950000000000003,0)" xlink:href="#cq"/><use transform="matrix(0.05,0,0,0.05,32.95,0)" xlink:href="#cq"/><use transform="matrix(0.05,0,0,0.05,42.95,0)" xlink:href="#bl"/><use transform="matrix(0.05,0,0,0.05,52.95,0)" xlink:href="#br"/><use transform="matrix(0.05,0,0,0.05,62.95,0)" xlink:href="#br"/><use transform="matrix(0.05,0,0,0.05,72.95,0)" xlink:href="#bo"/><use transform="matrix(0.05,0,0,0.05,77.95,0)" xlink:href="#bq"/><use transform="matrix(0.05,0,0,0.05,88.9,0)" xlink:href="#bj"/></g><path d="M76-54c-1 42 2 86-19 110H24C36 42 46 24 48 0H25v-54h51" id="cJ"/><g id="aA"><use transform="matrix(0.05,0,0,0.05,0,0)" xlink:href="#bd"/><use transform="matrix(0.05,0,0,0.05,12.950000000000001,0)" xlink:href="#cq"/><use transform="matrix(0.05,0,0,0.05,22.950000000000003,0)" xlink:href="#bk"/><use transform="matrix(0.05,0,0,0.05,28.900000000000002,0)" xlink:href="#cJ"/></g><g id="aB"><use transform="matrix(0.05,0,0,0.05,0,0)" xlink:href="#cr"/><use transform="matrix(0.05,0,0,0.05,10,0)" xlink:href="#cs"/><use transform="matrix(0.05,0,0,0.05,20,0)" xlink:href="#ct"/><use transform="matrix(0.05,0,0,0.05,30,0)" xlink:href="#cu"/></g><path d="M20 75v-336h95v34H67V41h48v34H20" id="cK"/><path d="M24 0v-54h51V0H24" id="cL"/><g id="aC"><use transform="matrix(0.05,0,0,0.05,0,0)" xlink:href="#cK"/><use transform="matrix(0.05,0,0,0.05,5.95,0)" xlink:href="#bf"/><use transform="matrix(0.05,0,0,0.05,17.95,0)" xlink:href="#br"/><use transform="matrix(0.05,0,0,0.05,27.950000000000003,0)" xlink:href="#cL"/></g><path d="M52 0c1-96 47-148 87-207H15v-41h169v40c-36 62-79 113-81 208H52" id="cM"/><path d="M4 75V41h49v-268H4v-34h96V75H4" id="cN"/><g id="aD"><use transform="matrix(0.05,0,0,0.05,0,0)" xlink:href="#cu"/><use transform="matrix(0.05,0,0,0.05,10,0)" xlink:href="#cM"/><use transform="matrix(0.05,0,0,0.05,20,0)" xlink:href="#cB"/><use transform="matrix(0.05,0,0,0.05,25.950000000000003,0)" xlink:href="#cr"/><use transform="matrix(0.05,0,0,0.05,35.95,0)" xlink:href="#cs"/><use transform="matrix(0.05,0,0,0.05,45.95,0)" xlink:href="#cr"/><use transform="matrix(0.05,0,0,0.05,55.95,0)" xlink:href="#cN"/></g><path d="M186 0v-106H76V0H24v-248h52v99h110v-99h50V0h-50" id="cO"/><g id="aE"><use transform="matrix(0.05,0,0,0.05,0,0)" xlink:href="#cO"/><use transform="matrix(0.05,0,0,0.05,12.950000000000001,0)" xlink:href="#bo"/><use transform="matrix(0.05,0,0,0.05,17.950000000000003,0)" xlink:href="#bj"/><use transform="matrix(0.05,0,0,0.05,28.900000000000006,0)" xlink:href="#cH"/><use transform="matrix(0.05,0,0,0.05,39.85000000000001,0)" xlink:href="#cI"/></g><path d="M115-159c48 0 72 30 72 78 0 54-30 85-83 85-64 0-91-50-91-122 0-98 58-163 141-120 15 8 21 24 27 44l-47 6c-5-31-48-31-61-4-7 14-11 33-11 60 9-17 28-27 53-27zM102-35c24 0 36-20 36-45s-11-43-37-43c-23 0-36 14-36 38 0 27 11 50 37 50" id="cP"/><g id="aF"><use transform="matrix(0.05,0,0,0.05,0,0)" xlink:href="#cr"/><use transform="matrix(0.05,0,0,0.05,10,0)" xlink:href="#cs"/><use transform="matrix(0.05,0,0,0.05,20,0)" xlink:href="#cu"/><use transform="matrix(0.05,0,0,0.05,30,0)" xlink:href="#cP"/></g><g id="aG"><use transform="matrix(0.05,0,0,0.05,0,0)" xlink:href="#cK"/><use transform="matrix(0.05,0,0,0.05,5.95,0)" xlink:href="#bf"/><use transform="matrix(0.05,0,0,0.05,17.95,0)" xlink:href="#cL"/></g><path d="M128-127c34 4 56 21 59 58 7 91-148 94-172 28-4-9-6-17-7-26l51-5c1 24 16 35 40 36 23 0 39-12 38-36-1-31-31-36-65-34v-40c32 2 59-3 59-33 0-20-13-33-34-33s-33 13-35 32l-50-3c6-44 37-68 86-68 50 0 83 20 83 66 0 35-22 52-53 58" id="cQ"/><path d="M101-251c68 0 84 54 84 127C185-50 166 4 99 4S15-52 14-124c-1-75 17-127 87-127zm-1 216c37-5 36-46 36-89s4-89-36-89c-39 0-36 45-36 89 0 43-3 85 36 89" id="cR"/><g id="aH"><use transform="matrix(0.05,0,0,0.05,0,0)" xlink:href="#cQ"/><use transform="matrix(0.05,0,0,0.05,10,0)" xlink:href="#cR"/><use transform="matrix(0.05,0,0,0.05,20,0)" xlink:href="#cN"/></g><path d="M238-95c0 69-44 99-111 99C63 4 22-25 22-93v-155h51v151c-1 38 19 59 55 60 90 1 49-130 58-211h52v153" id="cS"/><g id="aI"><use transform="matrix(0.05,0,0,0.05,0,0)" xlink:href="#cS"/><use transform="matrix(0.05,0,0,0.05,12.950000000000001,0)" xlink:href="#bG"/></g><path d="M210 0H11v-37l134-170H24v-41h178v36L68-41h142V0" id="cT"/><g id="aJ"><use transform="matrix(0.05,0,0,0.05,0,0)" xlink:href="#cT"/><use transform="matrix(0.05,0,0,0.05,10.950000000000001,0)" xlink:href="#bK"/><use transform="matrix(0.05,0,0,0.05,20.950000000000003,0)" xlink:href="#bN"/><use transform="matrix(0.05,0,0,0.05,36.95,0)" xlink:href="#bo"/><use transform="matrix(0.05,0,0,0.05,41.95,0)" xlink:href="#bj"/><use transform="matrix(0.05,0,0,0.05,52.900000000000006,0)" xlink:href="#cH"/><use transform="matrix(0.05,0,0,0.05,63.85,0)" xlink:href="#bK"/><use transform="matrix(0.05,0,0,0.05,73.85000000000001,0)" xlink:href="#bm"/></g><g id="aK"><use transform="matrix(0.05,0,0,0.05,0,0)" xlink:href="#bd"/><use transform="matrix(0.05,0,0,0.05,12.950000000000001,0)" xlink:href="#cq"/><use transform="matrix(0.05,0,0,0.05,22.950000000000003,0)" xlink:href="#bk"/></g><use transform="matrix(0.05,0,0,0.05,0,0)" xlink:href="#cx" id="aL"/><g id="aM"><use transform="matrix(0.05,0,0,0.05,0,0)" xlink:href="#cz"/><use transform="matrix(0.05,0,0,0.05,10.950000000000001,0)" xlink:href="#bc"/></g><g id="aN"><use transform="matrix(0.05,0,0,0.05,0,0)" xlink:href="#bd"/><use transform="matrix(0.05,0,0,0.05,12.950000000000001,0)" xlink:href="#cq"/><use transform="matrix(0.05,0,0,0.05,22.950000000000003,0)" xlink:href="#bk"/><use transform="matrix(0.05,0,0,0.05,28.900000000000002,0)" xlink:href="#cJ"/></g><g id="aO"><use transform="matrix(0.05,0,0,0.05,0,0)" xlink:href="#cr"/><use transform="matrix(0.05,0,0,0.05,10,0)" xlink:href="#cs"/><use transform="matrix(0.05,0,0,0.05,20,0)" xlink:href="#cu"/><use transform="matrix(0.05,0,0,0.05,30,0)" xlink:href="#cR"/></g><use transform="matrix(0.05,0,0,0.05,0,0)" xlink:href="#cK" id="aP"/><g id="aQ"><use transform="matrix(0.05,0,0,0.05,0,0)" xlink:href="#bf"/><use transform="matrix(0.05,0,0,0.05,12,0)" xlink:href="#br"/><use transform="matrix(0.05,0,0,0.05,22,0)" xlink:href="#cL"/></g><g id="aR"><use transform="matrix(0.05,0,0,0.05,0,0)" xlink:href="#cr"/><use transform="matrix(0.05,0,0,0.05,10,0)" xlink:href="#cP"/><use transform="matrix(0.05,0,0,0.05,20,0)" xlink:href="#cs"/><use transform="matrix(0.05,0,0,0.05,30,0)" xlink:href="#cB"/><use transform="matrix(0.05,0,0,0.05,35.95,0)" xlink:href="#cr"/><use transform="matrix(0.05,0,0,0.05,45.95,0)" xlink:href="#cM"/><use transform="matrix(0.05,0,0,0.05,55.95,0)" xlink:href="#cu"/><use transform="matrix(0.05,0,0,0.05,65.95,0)" xlink:href="#cN"/></g><g id="aS"><use transform="matrix(0.05,0,0,0.05,0,0)" xlink:href="#bG"/><use transform="matrix(0.05,0,0,0.05,12,0)" xlink:href="#bl"/><use transform="matrix(0.05,0,0,0.05,22,0)" xlink:href="#bm"/><use transform="matrix(0.05,0,0,0.05,29,0)" xlink:href="#br"/><use transform="matrix(0.05,0,0,0.05,39,0)" xlink:href="#bq"/><use transform="matrix(0.05,0,0,0.05,49.95,0)" xlink:href="#bj"/><use transform="matrix(0.05,0,0,0.05,60.900000000000006,0)" xlink:href="#bK"/><use transform="matrix(0.05,0,0,0.05,70.9,0)" xlink:href="#bM"/></g><g id="aT"><use transform="matrix(0.05,0,0,0.05,0,0)" xlink:href="#cz"/><use transform="matrix(0.05,0,0,0.05,10.950000000000001,0)" xlink:href="#bK"/><use transform="matrix(0.05,0,0,0.05,20.950000000000003,0)" xlink:href="#bH"/><use transform="matrix(0.05,0,0,0.05,34.95,0)" xlink:href="#br"/></g><g id="aU"><use transform="matrix(0.05,0,0,0.05,0,0)" xlink:href="#cO"/><use transform="matrix(0.05,0,0,0.05,12.950000000000001,0)" xlink:href="#bo"/><use transform="matrix(0.05,0,0,0.05,17.950000000000003,0)" xlink:href="#bj"/><use transform="matrix(0.05,0,0,0.05,28.900000000000006,0)" xlink:href="#cH"/><use transform="matrix(0.05,0,0,0.05,39.85000000000001,0)" xlink:href="#cI"/></g><g id="aV"><use transform="matrix(0.05,0,0,0.05,0,0)" xlink:href="#cz"/><use transform="matrix(0.05,0,0,0.05,10.950000000000001,0)" xlink:href="#bK"/><use transform="matrix(0.05,0,0,0.05,20.950000000000003,0)" xlink:href="#bH"/></g><g id="aW"><use transform="matrix(0.05,0,0,0.05,0,0)" xlink:href="#bJ"/><use transform="matrix(0.05,0,0,0.05,14.950000000000001,0)" xlink:href="#bq"/><use transform="matrix(0.05,0,0,0.05,25.900000000000002,0)" xlink:href="#bI"/><use transform="matrix(0.05,0,0,0.05,36.85,0)" xlink:href="#bK"/><use transform="matrix(0.05,0,0,0.05,46.85,0)" xlink:href="#bN"/><use transform="matrix(0.05,0,0,0.05,62.85,0)" xlink:href="#bN"/><use transform="matrix(0.05,0,0,0.05,78.85,0)" xlink:href="#bl"/><use transform="matrix(0.05,0,0,0.05,88.85,0)" xlink:href="#cH"/><use transform="matrix(0.05,0,0,0.05,99.8,0)" xlink:href="#bK"/><use transform="matrix(0.05,0,0,0.05,109.80000000000001,0)" xlink:href="#bj"/></g><path d="M140-251c80 0 125 45 125 126S219 4 139 4C58 4 15-44 15-125s44-126 125-126zm-1 214c52 0 73-35 73-88 0-50-21-86-72-86-52 0-73 35-73 86s22 88 72 88" id="cU"/><g id="aX"><use transform="matrix(0.05,0,0,0.05,0,0)" xlink:href="#cU"/><use transform="matrix(0.05,0,0,0.05,14,0)" xlink:href="#bk"/><use transform="matrix(0.05,0,0,0.05,19.95,0)" xlink:href="#bI"/><use transform="matrix(0.05,0,0,0.05,30.899999999999995,0)" xlink:href="#bl"/><use transform="matrix(0.05,0,0,0.05,40.9,0)" xlink:href="#bm"/></g><g id="aY"><use transform="matrix(0.05,0,0,0.05,0,0)" xlink:href="#bG"/><use transform="matrix(0.05,0,0,0.05,12,0)" xlink:href="#bl"/><use transform="matrix(0.05,0,0,0.05,22,0)" xlink:href="#bm"/><use transform="matrix(0.05,0,0,0.05,29,0)" xlink:href="#br"/><use transform="matrix(0.05,0,0,0.05,39,0)" xlink:href="#bq"/><use transform="matrix(0.05,0,0,0.05,49.95,0)" xlink:href="#bj"/><use transform="matrix(0.05,0,0,0.05,60.900000000000006,0)" xlink:href="#bK"/><use transform="matrix(0.05,0,0,0.05,70.9,0)" xlink:href="#bM"/></g><g id="aZ"><use transform="matrix(0.05,0,0,0.05,0,0)" xlink:href="#cz"/><use transform="matrix(0.05,0,0,0.05,10.950000000000001,0)" xlink:href="#bK"/><use transform="matrix(0.05,0,0,0.05,20.950000000000003,0)" xlink:href="#bH"/><use transform="matrix(0.05,0,0,0.05,34.95,0)" xlink:href="#br"/></g><g id="ba"><use transform="matrix(0.05,0,0,0.05,0,0)" xlink:href="#bi"/><use transform="matrix(0.05,0,0,0.05,5,0)" xlink:href="#bj"/><use transform="matrix(0.05,0,0,0.05,15.950000000000001,0)" xlink:href="#bk"/><use transform="matrix(0.05,0,0,0.05,21.900000000000002,0)" xlink:href="#bl"/><use transform="matrix(0.05,0,0,0.05,31.900000000000002,0)" xlink:href="#br"/><use transform="matrix(0.05,0,0,0.05,41.900000000000006,0)" xlink:href="#bk"/><use transform="matrix(0.05,0,0,0.05,47.85000000000001,0)" xlink:href="#bK"/><use transform="matrix(0.05,0,0,0.05,57.85,0)" xlink:href="#bk"/><use transform="matrix(0.05,0,0,0.05,63.80000000000001,0)" xlink:href="#bl"/></g></defs></g></svg>